<?xml version="1.0" standalone="no"?>
<!DOCTYPE svg PUBLIC "-//W3C//DTD SVG 20010904//EN"
 "http://www.w3.org/TR/2001/REC-SVG-20010904/DTD/svg10.dtd">
<svg version="1.0" xmlns="http://www.w3.org/2000/svg"
 width="1024.000000pt" height="1024.000000pt" viewBox="0 0 1024.000000 1024.000000"
 preserveAspectRatio="xMidYMid meet">
<metadata>
Created by potrace 1.14, written by Peter Selinger 2001-2017
</metadata>
<g transform="translate(0.000000,1024.000000) scale(0.100000,-0.100000)"
fill="#000000" stroke="none">
<path d="M1990 10133 c81 -184 279 -615 432 -943 57 -124 113 -244 123 -268
36 -84 43 -73 38 65 -2 71 0 333 4 583 8 446 8 455 28 455 11 0 23 -4 28 -10
4 -6 11 -4 17 5 5 8 10 11 10 5 0 -5 21 -10 48 -10 26 0 66 -3 90 -6 27 -4 42
-2 42 5 0 7 3 7 8 1 9 -13 25 -15 172 -18 69 -2 132 -7 139 -12 10 -6 12 -4 6
5 -6 9 -2 10 16 5 13 -4 27 -12 30 -17 4 -6 8 -6 10 1 3 7 27 13 56 14 28 1
49 -1 46 -5 -6 -12 13 -13 61 -4 14 2 28 2 30 -2 2 -4 54 -7 115 -7 61 0 111
-2 111 -6 0 -3 7 -6 15 -6 8 0 15 3 15 7 0 10 44 6 53 -5 6 -7 10 -6 13 2 4 8
13 9 27 4 12 -5 56 -7 97 -7 57 2 78 -2 88 -13 8 -9 11 -10 7 -3 -4 8 3 12 25
12 17 0 29 -4 26 -8 -3 -5 1 -9 8 -9 8 0 12 6 10 12 -3 6 2 12 11 12 8 0 15
-7 16 -16 0 -10 3 -11 5 -4 4 8 13 9 28 3 15 -5 27 -5 34 2 8 8 16 7 28 -3 12
-9 15 -10 10 -1 -5 8 0 12 13 12 12 0 21 -4 21 -10 0 -5 8 -10 18 -9 10 0 12
3 5 6 -7 2 -13 9 -13 14 0 6 7 6 18 0 9 -5 34 -8 55 -7 31 3 41 -1 48 -18 8
-17 8 -15 4 9 -4 21 -3 26 4 15 11 -15 111 -22 111 -8 0 5 9 4 19 -2 25 -13
41 -13 21 0 -11 7 -5 8 20 4 19 -3 41 -7 48 -10 6 -2 12 1 12 6 0 6 7 10 15
10 8 0 15 -4 15 -10 0 -5 5 -10 11 -10 5 0 7 5 3 12 -4 7 -3 8 5 4 6 -4 18 -3
26 4 10 9 19 8 37 -1 13 -7 23 -12 23 -11 0 0 12 5 28 11 18 7 27 7 27 1 0
-16 54 -34 58 -20 2 6 17 17 34 26 28 14 29 14 19 -4 -5 -10 -28 -31 -50 -46
-22 -15 -42 -34 -45 -41 -2 -7 -35 -30 -73 -50 -37 -21 -100 -59 -139 -86 -39
-26 -74 -45 -78 -42 -3 4 -16 -3 -29 -14 -12 -11 -67 -46 -122 -78 -55 -32
-154 -93 -220 -135 -66 -43 -178 -107 -250 -143 -170 -85 -410 -220 -412 -230
-1 -5 -5 -12 -9 -15 -4 -4 -4 -1 0 6 12 20 -4 14 -43 -17 -84 -66 -254 -161
-287 -161 -13 0 -33 -10 -44 -22 -12 -13 -27 -30 -36 -38 -43 -43 -567 -336
-572 -320 -2 5 -8 10 -14 10 -5 0 -7 -8 -4 -18 8 -23 -16 -41 -165 -125 -232
-130 -315 -179 -413 -241 -93 -58 -107 -64 -171 -70 -38 -3 -85 -8 -103 -10
-18 -3 -31 -2 -28 3 3 4 -35 6 -85 4 -49 -2 -89 1 -89 6 0 4 12 7 28 4 23 -3
24 -2 7 6 -16 8 -10 9 25 9 25 0 50 -4 55 -7 6 -3 2 2 -8 11 -11 10 -23 15
-29 12 -5 -3 -17 0 -26 8 -24 21 -79 41 -95 35 -7 -3 -24 4 -38 15 -21 17 -21
19 -4 14 69 -18 78 -19 71 -8 -5 8 -1 10 11 5 15 -5 14 -2 -4 16 -12 11 -26
21 -31 21 -4 0 -17 7 -28 16 -18 14 -18 15 4 4 13 -6 28 -9 35 -7 7 3 0 10
-15 16 -30 11 -37 21 -13 17 8 -1 22 -9 32 -18 10 -8 32 -23 48 -31 19 -10 24
-16 13 -17 -9 0 -20 5 -23 10 -3 6 -12 10 -18 10 -7 -1 -1 -10 12 -20 13 -11
17 -20 10 -20 -7 0 -10 -3 -6 -6 3 -3 20 -3 38 1 24 5 28 9 18 17 -11 7 -11 9
-1 6 8 -2 13 -7 12 -12 -1 -5 4 -13 12 -17 10 -7 9 -9 -4 -9 -24 0 -23 -17 1
-30 26 -13 34 -13 25 3 -6 9 -4 9 8 -1 17 -13 52 -6 42 9 -3 5 -9 7 -13 5 -4
-3 -8 1 -8 8 0 15 27 15 28 0 0 -5 10 -14 22 -21 13 -7 16 -12 8 -13 -8 0 -12
-2 -9 -5 9 -9 58 6 53 16 -3 5 7 12 22 15 25 7 25 8 8 15 -11 4 -14 8 -7 8 7
1 29 -6 49 -14 46 -19 56 -11 12 9 l-34 16 35 -6 c26 -4 31 -3 20 5 -13 10
-13 11 0 11 12 1 11 3 -3 11 -10 6 -31 8 -46 4 -18 -4 -32 -2 -36 5 -5 9 -1
10 15 5 15 -5 20 -4 16 4 -4 6 -1 11 6 11 7 1 2 7 -12 16 l-25 15 25 -7 c14
-3 50 -17 80 -29 30 -13 66 -26 80 -30 l25 -6 -25 16 -25 16 32 -6 c36 -7 73
1 73 15 0 5 -17 18 -37 29 -40 21 -40 27 -1 12 13 -4 37 -11 53 -15 28 -6 29
-5 11 9 -11 8 -17 18 -13 22 4 3 15 -1 25 -10 11 -10 23 -13 31 -8 9 6 4 12
-19 20 -18 6 -35 9 -39 6 -4 -2 -24 2 -45 9 l-38 13 32 6 c20 5 42 1 62 -9 16
-8 32 -13 35 -11 3 3 -8 12 -23 20 -26 14 -25 14 27 9 30 -2 60 -9 67 -14 6
-6 12 -7 12 -3 0 4 -8 14 -17 22 -16 12 -15 13 11 7 19 -5 27 -3 23 3 -9 14
18 24 40 16 11 -4 14 -3 9 5 -5 8 3 12 24 12 18 0 29 4 25 10 -3 6 5 10 19 10
38 0 226 91 226 110 0 12 -2 13 -9 1 -5 -7 -14 -10 -20 -7 -6 4 -11 4 -11 -1
0 -4 -21 -9 -47 -10 -26 -1 -49 -6 -51 -12 -2 -5 -14 -7 -28 -5 -13 2 -24 1
-24 -3 0 -8 -53 -14 -132 -17 -25 -1 -38 -6 -38 -15 0 -9 -8 -11 -27 -7 -17 5
-29 3 -34 -6 -7 -11 -9 -11 -9 0 0 7 -5 10 -10 7 -6 -4 -52 -8 -103 -11 -111
-4 -145 -9 -203 -29 -25 -8 -58 -15 -74 -15 -16 0 -51 -4 -77 -9 -26 -5 -67
-12 -91 -14 -36 -4 -42 -3 -38 11 7 22 -58 92 -87 93 -12 1 -26 1 -30 0 -5 -1
-6 3 -2 9 3 6 11 7 17 4 7 -5 8 -2 3 5 -9 15 -65 7 -76 -11 -5 -7 -12 -9 -16
-4 -7 7 20 34 90 89 16 12 39 40 53 63 23 39 23 42 8 72 -8 18 -20 32 -25 32
-17 0 24 37 66 59 26 14 58 21 94 21 l54 0 -24 20 c-13 11 -29 24 -36 30 -43
36 -59 35 -158 -13 -52 -26 -96 -47 -98 -47 -3 0 -3 11 -2 25 2 14 -1 25 -6
25 -6 0 -7 5 -4 10 11 17 -5 48 -23 46 -9 0 -17 6 -17 14 0 8 -4 20 -7 26 -8
12 -43 12 -54 1 -13 -13 -42 -7 -48 8 -4 12 -14 14 -39 10 l-34 -7 -38 107
c-23 64 -46 112 -58 120 -12 8 -22 13 -24 11 -2 -1 8 -34 20 -72 25 -72 54
-231 44 -240 -3 -3 -13 7 -22 23 -14 25 -15 26 -9 3 l7 -24 -28 18 c-37 24
-42 14 -14 -30 12 -21 17 -34 11 -30 -16 10 -15 -7 1 -23 10 -10 7 -10 -15 0
-16 7 -55 45 -89 86 -95 115 -153 148 -192 109 -9 -9 -19 -11 -28 -5 -8 5 -21
8 -29 8 -8 0 8 -11 36 -25 60 -29 134 -89 134 -109 0 -16 32 -79 43 -83 4 -2
7 -8 7 -14 0 -6 8 -17 18 -24 12 -9 13 -13 3 -14 -7 0 -11 -6 -7 -15 3 -8 -29
13 -72 47 -110 88 -218 131 -256 102 -24 -17 -13 -32 30 -40 20 -4 50 -19 67
-35 17 -16 35 -29 40 -29 11 0 38 -27 38 -37 0 -4 14 -7 31 -5 24 2 29 -1 24
-13 -4 -11 2 -15 27 -16 21 -1 25 -3 12 -6 -35 -8 -40 -21 -17 -41 12 -11 18
-22 14 -26 -4 -4 1 -14 12 -21 10 -8 15 -18 11 -24 -3 -6 1 -11 9 -11 10 0 13
-6 10 -15 -7 -18 0 -19 26 -5 11 6 21 6 24 1 3 -5 -1 -12 -10 -15 -8 -3 -12
-10 -9 -16 3 -5 2 -10 -4 -10 -6 0 -8 -7 -5 -15 4 -8 15 -15 26 -15 15 0 18
-5 13 -20 -5 -15 0 -21 20 -26 15 -4 24 -12 22 -19 -10 -26 11 -38 64 -37 57
2 86 -9 75 -26 -5 -8 -15 -8 -32 -2 -18 7 -23 7 -18 -1 3 -6 0 -15 -7 -20 -10
-7 -7 -9 11 -8 70 5 95 -11 28 -18 -54 -5 -79 -13 -73 -23 4 -6 -1 -7 -11 -3
-12 4 -15 3 -10 -5 10 -16 3 -15 -38 5 -32 15 -37 15 -53 1 -21 -19 -93 -40
-93 -28 0 4 -9 6 -20 3 -11 -3 -17 -9 -14 -14 3 -5 -4 -9 -15 -9 -10 0 -22 6
-24 13 -4 9 -8 9 -15 -2 -5 -7 -23 -16 -38 -19 -46 -8 -235 -8 -241 1 -2 4 15
8 39 8 24 1 57 4 73 8 l30 7 -32 19 c-32 19 -33 22 -33 83 0 35 5 72 11 84 6
11 9 21 7 23 -12 11 -104 -27 -125 -51 -15 -18 -22 -22 -19 -11 9 28 -27 4
-66 -44 -28 -35 -33 -38 -39 -22 -15 36 -9 91 15 136 13 26 20 50 15 52 -4 3
-12 -3 -18 -12 -9 -15 -12 -16 -20 -4 -7 11 -17 -2 -42 -52 -32 -65 -49 -83
-49 -52 0 8 -4 15 -8 15 -4 0 -14 16 -21 36 -25 69 -36 35 -39 -126 -2 -135 0
-155 15 -173 13 -15 15 -21 6 -24 -21 -8 -14 -26 7 -20 11 3 18 1 14 -4 -3 -5
-14 -9 -25 -9 -17 0 -19 -7 -19 -65 0 -61 2 -65 23 -66 12 0 416 0 897 0 723
-1 880 -3 900 -15 22 -12 7 -13 -130 -14 -85 0 -500 -1 -922 -2 l-768 -1 0
-74 0 -73 958 0 c526 0 965 -2 974 -3 10 -2 32 -16 49 -33 l31 -29 -39 -6
c-21 -3 -473 -4 -1006 -2 l-967 3 0 -380 1 -380 34 -1 c19 -1 41 -2 48 -3 7 0
15 -23 18 -53 4 -29 9 -59 12 -67 4 -10 1 -13 -8 -10 -10 4 -12 -3 -8 -32 l5
-38 -51 43 -51 43 0 -58 c0 -45 5 -63 22 -81 22 -23 12 -33 -10 -11 -9 9 -12
-80 -12 -400 l0 -412 31 0 c16 0 28 4 25 9 -8 12 31 18 74 11 29 -4 36 -10 38
-32 4 -37 -28 -53 -105 -49 l-63 2 0 -165 0 -165 72 25 c82 27 88 28 88 12 0
-6 7 -19 16 -29 14 -16 12 -18 -38 -37 -44 -16 -55 -25 -65 -53 -13 -36 -14
-36 -18 -1 -1 12 2 22 6 22 5 0 9 3 9 8 0 7 -47 32 -62 32 -4 0 -8 -505 -8
-1122 l0 -1121 68 64 c37 36 87 81 112 100 59 47 194 124 250 144 24 9 63 27
86 40 23 13 61 27 85 31 l44 6 -40 -33 c-22 -19 -71 -65 -109 -104 -37 -38
-65 -61 -62 -51 5 16 4 17 -9 6 -8 -7 -15 -18 -15 -24 0 -7 -6 -20 -13 -31
-13 -17 -14 -17 -12 3 1 12 4 25 8 28 19 20 4 24 -16 6 -13 -12 -27 -19 -30
-15 -4 3 -7 -1 -7 -10 0 -9 -11 -24 -25 -33 -13 -9 -27 -24 -30 -35 -10 -31
-36 -24 -30 8 5 22 2 19 -14 -12 -14 -28 -21 -34 -21 -20 -1 12 -8 3 -20 -25
-15 -37 -19 -40 -20 -20 -1 24 -1 24 -15 6 -15 -20 -20 -12 -15 24 3 25 -14 1
-32 -43 -18 -46 -23 -40 -9 10 5 17 7 34 4 37 -10 10 -33 -16 -33 -36 0 -13
-5 -18 -14 -15 -9 4 -24 -9 -40 -32 l-26 -37 0 -497 c0 -361 3 -497 11 -497 8
0 8 -5 -1 -15 -10 -12 -9 -15 6 -15 11 0 37 -2 59 -5 l40 -5 -45 14 -45 14 60
3 c51 2 54 3 20 7 l-40 4 45 14 c25 8 98 24 162 35 131 22 197 42 113 33 -48
-4 -49 -4 -25 10 29 18 66 20 75 6 3 -5 14 -10 23 -10 15 0 15 2 2 10 -11 7
-6 10 20 11 l35 0 -40 19 c-32 16 -35 18 -11 13 23 -5 27 -3 21 8 -8 12 -6 12
8 1 9 -8 24 -12 34 -9 14 4 13 5 -4 6 -13 0 -23 5 -23 10 0 16 116 41 214 45
72 3 103 8 114 20 22 22 11 28 -21 11 -30 -15 -36 -9 -10 10 15 11 14 12 -12
8 -23 -3 -27 -2 -15 6 8 6 27 8 41 5 22 -4 27 -2 25 13 0 12 7 19 22 21 12 2
22 8 22 13 0 6 9 7 21 4 15 -5 19 -4 15 4 -5 7 11 19 41 33 45 19 46 21 23 27
-29 8 -23 13 50 35 68 21 159 55 181 66 24 12 179 2 312 -21 92 -17 77 -23
-20 -9 -58 9 -94 9 -134 1 -103 -21 -116 -22 -94 -11 16 8 12 9 -18 4 -51 -7
-157 -58 -198 -95 -17 -15 -36 -26 -42 -22 -6 3 -7 1 -3 -5 6 -9 -26 -28 -118
-71 -5 -2 -5 2 -1 9 5 9 4 11 -4 6 -8 -6 -9 -12 -2 -20 6 -7 8 -16 4 -20 -4
-4 1 -4 12 0 44 17 -124 -128 -180 -155 -59 -28 -190 -61 -245 -61 -15 0 -37
-9 -50 -20 -12 -10 -66 -36 -119 -56 -53 -20 -136 -54 -186 -74 -50 -21 -98
-41 -108 -44 -16 -5 -17 -61 -17 -996 l0 -991 275 1 c160 1 277 5 280 11 4 5
17 6 31 3 18 -5 24 -3 22 7 -2 10 6 13 24 12 16 -1 28 3 28 8 0 6 5 7 10 4 6
-3 10 1 10 11 0 13 3 14 14 5 12 -10 13 -8 8 11 -5 21 -4 22 13 8 11 -9 16
-10 11 -2 -4 7 -1 12 8 12 9 0 16 4 16 10 0 5 11 12 25 16 14 3 22 11 18 17
-4 6 0 8 10 4 9 -3 17 -2 19 2 2 5 19 17 38 27 25 14 35 26 35 43 0 19 7 27
33 33 17 5 32 13 32 19 0 6 4 7 10 4 5 -3 7 0 4 9 -4 11 3 17 23 22 15 4 42
17 60 30 30 23 33 23 42 7 6 -10 11 -12 11 -5 0 7 13 12 33 12 48 0 107 12
107 21 0 4 -13 10 -29 14 -29 6 -29 7 -10 26 10 10 23 19 29 19 6 0 10 3 10 8
0 9 46 30 95 43 19 6 35 15 35 21 0 6 -9 8 -20 5 -11 -3 -18 0 -17 7 1 6 -10
12 -25 14 -16 2 -28 9 -28 18 0 8 -7 14 -16 14 -8 0 -13 4 -10 9 4 5 0 12 -6
14 -10 4 -9 6 1 6 10 1 7 7 -7 20 -12 10 -19 21 -15 25 3 3 -4 6 -16 6 -12 0
-24 6 -27 14 -3 8 -17 17 -32 21 -20 5 -23 8 -12 15 10 6 6 10 -16 15 -16 4
-32 7 -36 8 -4 1 17 19 47 40 l55 38 64 -20 c35 -11 74 -17 87 -14 37 10 69
29 62 37 -4 4 1 4 10 0 12 -4 23 0 31 11 10 15 18 15 52 6 51 -14 95 -15 74
-1 -10 7 -11 10 -2 10 7 0 15 -7 18 -15 4 -8 11 -15 16 -15 6 0 7 7 4 16 -3 8
-2 12 4 9 6 -3 10 1 10 9 0 12 10 16 35 16 21 0 35 5 35 13 0 9 2 9 9 -1 6
-10 10 -10 21 3 8 10 21 13 39 9 61 -14 91 -13 91 1 0 8 5 16 10 16 19 3 25 5
46 17 12 6 24 8 28 5 9 -10 56 38 49 50 -3 6 -1 7 6 3 7 -5 46 21 100 67 92
78 110 86 204 90 26 1 47 5 47 9 0 4 10 12 21 19 12 6 19 7 15 1 -3 -5 1 -13
10 -16 12 -4 15 -2 10 9 -5 13 -2 13 25 -1 17 -8 28 -11 25 -5 -5 7 3 11 18
11 14 0 31 8 37 19 7 11 19 16 31 13 10 -2 18 1 18 8 0 8 8 10 24 6 14 -3 28
-2 31 4 3 5 13 10 21 10 9 0 22 6 30 14 12 13 10 15 -18 21 l-31 7 32 14 c18
7 35 13 39 13 4 -1 10 0 15 1 16 5 28 8 50 9 18 1 19 3 7 11 -11 7 -2 10 32
10 53 0 71 15 36 29 -21 9 -20 10 12 12 28 1 30 3 10 6 -22 5 -21 6 15 24 22
10 56 18 76 17 20 -1 42 3 50 8 8 5 28 10 44 11 17 1 67 6 113 11 87 8 95 4
65 -32 -10 -12 -2 -7 17 11 39 36 64 39 328 45 93 2 121 6 117 16 -2 6 0 12 5
12 6 0 10 -7 10 -16 0 -8 5 -12 10 -9 6 4 8 11 5 16 -3 5 1 6 9 3 9 -3 16 -10
16 -15 0 -18 30 -8 46 16 14 21 18 23 37 12 12 -7 25 -16 29 -22 5 -6 8 -5 8
4 0 9 8 12 25 9 14 -3 25 -1 25 3 0 5 13 9 28 9 15 0 34 6 41 12 8 7 11 8 8 3
-3 -6 6 -15 19 -22 13 -6 22 -8 19 -3 -7 12 20 20 44 13 15 -4 27 1 36 13 14
18 14 18 15 1 0 -10 4 -16 10 -12 5 3 7 12 4 19 -4 9 4 13 25 12 17 -1 31 -4
31 -8 0 -5 5 -8 11 -8 5 0 7 4 4 10 -3 6 1 7 9 4 9 -3 16 -14 16 -23 0 -12 2
-13 9 -3 4 8 11 13 15 13 20 -3 27 1 42 25 12 17 14 28 7 32 -7 5 -6 11 3 20
12 11 14 9 14 -9 0 -16 4 -20 18 -15 11 4 8 -1 -7 -12 -25 -20 -21 -48 6 -38
8 3 11 2 8 -3 -3 -5 -1 -12 4 -15 5 -4 8 -20 6 -36 -4 -27 -75 -283 -91 -323
-3 -9 -4 -17 -1 -17 3 0 29 74 58 165 47 146 54 162 66 147 8 -9 12 -12 9 -6
-3 6 6 17 20 24 18 10 21 16 12 22 -10 5 -8 8 5 8 20 0 22 20 5 40 -11 12 -10
12 3 2 14 -11 18 -9 23 14 4 14 9 24 12 22 2 -3 -3 -24 -11 -48 -8 -23 -15
-48 -15 -55 0 -18 70 -25 278 -26 100 0 182 -4 182 -8 0 -4 9 -7 20 -8 12 -1
18 3 14 9 -4 6 2 5 16 -2 12 -6 28 -9 36 -6 9 3 12 1 9 -4 -3 -6 4 -10 17 -10
18 0 20 2 8 10 -10 6 5 8 45 5 33 -2 62 -5 65 -6 3 0 14 -2 25 -3 18 -1 20
-10 25 -113 3 -61 9 -115 14 -120 5 -4 6 49 3 127 -3 74 -3 129 0 122 2 -6 9
-10 14 -6 5 3 9 -1 9 -8 0 -10 3 -9 10 2 7 12 12 12 34 1 19 -10 29 -11 38 -3
9 7 19 7 28 2 21 -13 38 -12 20 1 -12 9 -11 9 5 4 11 -4 139 -9 285 -12 340
-5 374 -5 498 3 86 5 101 8 91 20 -6 8 -15 12 -19 9 -5 -3 -11 -1 -14 4 -10
15 13 17 151 17 73 -1 133 3 133 7 0 4 -12 35 -26 68 -28 67 -28 93 1 30 9
-22 22 -38 29 -37 6 2 8 1 4 -1 -14 -8 -8 -23 8 -23 9 0 12 -5 8 -12 -6 -10
-4 -10 8 0 9 7 19 9 22 4 10 -16 55 -1 62 20 3 12 9 17 13 12 11 -16 60 -34
76 -28 10 4 13 2 10 -7 -4 -11 7 -15 47 -16 29 -1 66 -4 83 -7 21 -4 35 0 53
17 18 17 22 18 16 4 -3 -10 -1 -17 6 -17 6 0 8 -5 5 -10 -6 -9 36 -16 60 -10
6 2 17 3 25 4 8 1 15 6 15 11 0 11 -10 11 -50 1 -14 -4 -25 -2 -25 4 0 5 5 10
10 10 22 0 8 16 -28 32 l-37 16 67 1 c37 1 70 -3 73 -9 3 -5 2 -10 -4 -10 -5
0 -17 -3 -27 -7 -12 -4 -15 -3 -10 5 5 8 -1 12 -15 12 l-22 0 22 -19 c17 -15
29 -17 51 -11 18 5 32 4 39 -3 16 -16 13 -30 -5 -23 -9 3 -12 2 -9 -5 4 -6 13
-8 20 -5 8 3 19 -2 26 -10 8 -10 14 -11 19 -4 4 6 23 -13 46 -44 21 -30 43
-55 48 -56 5 0 3 8 -5 18 -8 9 -35 43 -58 75 -24 32 -46 55 -49 52 -3 -2 1
-11 8 -20 7 -8 10 -15 8 -15 -3 0 -35 39 -72 88 -61 78 -44 67 27 -19 16 -19
26 -26 23 -17 -3 12 -1 15 9 12 8 -3 13 -11 12 -17 -3 -19 87 -21 103 -2 7 8
17 15 23 15 6 0 3 -6 -7 -13 -16 -12 -16 -13 4 -14 12 -1 24 5 27 13 3 8 10
14 15 14 6 0 5 -6 -2 -15 -11 -13 14 -14 210 -9 201 5 224 4 241 -12 11 -10
19 -12 19 -6 0 8 7 9 26 2 33 -13 37 -13 28 3 -5 8 -2 7 10 -2 13 -11 14 -16
4 -22 -11 -7 -11 -9 0 -9 24 0 42 26 29 39 -7 7 16 -6 49 -28 54 -36 65 -40
89 -31 23 9 26 8 21 -5 -3 -9 -2 -13 3 -10 16 9 95 14 106 6 17 -14 54 -20 52
-9 -1 6 4 13 12 16 8 2 11 0 8 -5 -4 -6 3 -8 17 -6 13 3 27 -1 31 -8 5 -7 4
-10 -3 -5 -6 3 -13 2 -16 -3 -4 -5 1 -8 10 -7 8 1 20 9 25 17 5 8 9 9 9 3 0
-17 107 -16 114 1 8 22 226 22 226 0 0 -9 10 -16 28 -16 15 -1 39 -2 54 -3 14
0 30 -4 34 -8 14 -15 26 -8 13 8 -10 12 -4 11 22 -4 19 -10 57 -20 84 -21 28
-2 84 -6 125 -11 41 -5 78 -6 82 -4 5 3 8 0 8 -6 0 -17 -29 -23 -45 -10 -11 9
-15 9 -15 1 0 -7 -5 -9 -12 -5 -7 4 -8 3 -4 -4 4 -6 14 -8 23 -5 10 4 14 2 10
-4 -4 -7 5 -9 25 -7 17 2 45 -3 61 -11 34 -17 40 -18 33 -7 -3 5 1 9 9 9 8 0
12 -4 9 -9 -3 -4 7 -9 23 -9 31 -1 38 -3 71 -14 18 -6 20 -10 10 -16 -18 -12
-85 -11 -91 1 -3 6 -4 5 -3 -2 2 -8 26 -15 68 -18 64 -5 66 -4 56 15 -6 11
-16 23 -22 27 -7 5 -6 8 4 8 8 0 21 -9 28 -20 7 -11 19 -20 27 -20 9 0 27 -7
40 -16 14 -9 25 -12 25 -7 0 5 17 7 38 5 62 -6 70 -16 17 -22 -47 -6 -45 -7
30 -10 69 -2 75 -3 40 -10 -22 -4 -45 -6 -52 -3 -6 3 -20 0 -30 -6 -14 -9 1
-11 65 -10 45 1 86 -1 90 -6 4 -4 0 -6 -8 -5 -8 1 -26 2 -40 1 -51 -3 1 -17
60 -16 38 0 60 -4 60 -11 0 -15 40 -26 40 -11 0 7 7 4 14 -5 7 -10 21 -18 30
-18 9 0 16 -4 16 -10 0 -5 20 -18 45 -29 25 -11 45 -23 45 -27 0 -3 -7 -4 -15
-1 -8 4 -17 2 -20 -3 -3 -5 11 -6 31 -4 30 4 35 2 30 -11 -4 -11 3 -19 22 -26
15 -5 37 -14 49 -20 11 -6 27 -8 34 -4 8 5 10 4 5 -3 -4 -7 -2 -12 4 -12 15 0
120 -50 120 -57 0 -3 -19 -3 -42 0 -24 3 -35 3 -25 0 9 -2 15 -8 13 -12 -3 -4
9 -5 26 -3 33 5 150 -26 143 -38 -3 -4 4 -10 16 -13 17 -5 18 -3 8 9 -10 12
-9 13 5 8 15 -6 16 68 15 962 0 533 -3 976 -7 984 -4 8 -23 16 -42 18 -31 3
-33 2 -17 -10 17 -13 16 -14 -8 -13 -14 1 -31 7 -38 15 -10 10 -9 11 2 5 9 -5
12 -3 9 6 -3 8 -11 14 -19 14 -8 0 -17 7 -20 15 -4 10 -11 0 -18 -27 -13 -46
-26 -59 -19 -18 3 14 -1 30 -8 36 -8 6 -14 17 -14 24 0 7 -7 18 -15 25 -8 7
-15 23 -15 36 0 14 -5 22 -12 20 -7 -1 -10 -1 -5 1 13 8 7 33 -8 33 -8 0 -15
5 -15 10 0 6 8 10 18 8 11 -2 16 3 14 15 -2 9 2 17 8 17 5 0 10 -6 10 -12 0
-10 2 -10 8 -1 6 9 13 3 26 -18 20 -33 34 -33 16 0 -8 15 -8 21 0 21 6 0 8 5
5 10 -4 6 -11 8 -16 5 -5 -3 -6 1 -3 9 3 9 11 16 16 16 6 0 7 7 4 16 -4 12 -2
15 9 10 8 -3 15 -1 15 5 0 6 4 8 9 5 5 -4 7 4 3 16 -5 21 -4 21 11 9 16 -12
16 -11 2 28 -8 22 -12 41 -9 41 17 0 49 -38 47 -55 -3 -18 -2 -17 9 3 6 12 15
22 20 22 4 0 8 7 8 16 0 8 4 13 9 10 5 -4 7 3 4 14 -3 11 -9 20 -13 20 -5 0
-8 21 -8 46 0 34 3 43 11 35 17 -17 27 -13 27 12 0 18 -2 19 -10 7 -7 -10 -10
-11 -10 -2 0 7 6 15 13 18 16 6 18 36 3 46 -8 6 -7 10 2 16 10 7 12 301 10
1437 -3 1337 -4 1428 -20 1412 -9 -9 -21 -17 -26 -17 -5 0 -17 -11 -26 -25 -9
-14 -22 -25 -28 -25 -6 0 -21 -8 -32 -18 -20 -16 -20 -16 -6 3 24 33 83 86
112 101 l28 15 0 764 0 765 -566 0 c-384 0 -563 3 -559 10 4 6 12 10 18 9 7
-1 258 -1 560 0 l547 1 0 75 0 74 -662 4 c-598 3 -752 8 -768 24 -3 3 76 3
175 -1 218 -8 474 -8 534 1 34 4 42 3 36 -7 -5 -8 -4 -11 3 -6 17 10 465 14
485 4 11 -5 17 -5 17 1 0 7 33 8 90 5 l90 -6 0 60 c0 39 -4 62 -12 65 -10 4
-10 6 0 6 8 1 12 22 12 70 0 64 -2 70 -22 74 l-23 4 23 2 22 1 0 845 c0 465
-2 845 -6 845 -3 0 -10 -14 -16 -30 -8 -25 -13 -28 -24 -19 -11 9 -14 7 -14
-10 0 -11 -5 -20 -11 -19 -7 2 -16 -13 -21 -32 -9 -33 -8 -69 8 -165 6 -38 6
-39 -9 -20 -16 19 -16 19 -17 -13 0 -20 -4 -31 -10 -27 -7 4 -8 -3 -4 -21 5
-19 4 -25 -5 -20 -16 10 -14 -10 5 -47 l17 -32 -22 19 c-11 11 -21 14 -21 8 0
-6 -7 -9 -16 -5 -13 5 -15 -1 -11 -41 4 -29 2 -46 -5 -46 -6 0 -6 -6 2 -15 9
-11 9 -15 1 -15 -9 0 -8 -6 1 -22 16 -29 17 -40 5 -55 -15 -21 -22 -16 -61 42
-20 30 -40 55 -44 55 -4 0 -22 14 -41 30 -40 36 -56 39 -40 8 12 -22 11 -22
-8 -5 -27 24 -52 23 -30 -1 26 -29 20 -38 -7 -13 -14 13 -29 20 -35 17 -5 -4
-13 -1 -17 5 -5 8 -3 9 6 4 9 -5 11 -4 6 4 -6 9 -11 9 -21 1 -8 -7 -19 -9 -24
-6 -6 4 -19 1 -30 -6 -15 -9 -17 -16 -10 -31 10 -18 9 -18 -23 -1 l-33 17 19
-22 c13 -14 15 -20 5 -17 -19 8 -96 -20 -78 -27 8 -3 -4 -6 -26 -7 -22 -1 -34
-4 -27 -7 9 -3 7 -9 -7 -21 -21 -19 -44 -79 -35 -94 3 -5 16 -1 28 10 34 32
88 57 126 60 28 1 31 0 15 -7 -14 -7 0 -10 51 -10 47 -1 77 -6 90 -16 10 -8
15 -15 9 -14 -5 1 -30 0 -55 -1 -42 -2 -43 -3 -14 -9 46 -11 59 -21 43 -32
-11 -7 -11 -9 -1 -9 7 0 10 -4 7 -10 -4 -6 6 -10 22 -10 26 -1 27 -2 10 -14
-17 -13 -16 -15 15 -21 30 -7 31 -8 12 -16 -12 -4 -25 -14 -29 -21 -6 -10 -5
-11 6 0 7 6 22 12 33 11 20 0 20 -1 -1 -9 -35 -14 -27 -18 17 -10 52 9 59 0
18 -23 -24 -13 -27 -17 -10 -13 12 2 22 -1 22 -7 0 -8 4 -7 12 1 7 7 19 12 27
12 7 0 -4 -13 -27 -29 -22 -16 -43 -34 -46 -39 -7 -12 48 -6 75 9 19 10 20 9
6 -18 -12 -25 -14 -53 -9 -115 1 -10 22 -38 46 -63 63 -63 39 -56 -36 11 -126
113 -299 167 -423 133 -22 -6 -42 -14 -45 -18 -3 -4 -28 -21 -57 -39 -47 -30
-102 -80 -63 -57 9 5 7 -1 -5 -15 -13 -15 -15 -21 -5 -16 8 4 3 -4 -12 -18
-28 -25 -38 -43 -17 -30 8 4 8 1 2 -12 -6 -11 -8 -37 -7 -59 2 -23 -3 -49 -11
-62 -19 -28 -19 -39 -1 -24 10 8 15 8 18 1 6 -19 48 20 48 45 0 33 20 75 37
75 7 0 13 6 13 13 0 8 10 22 22 33 19 16 20 16 9 1 -24 -30 -2 -33 24 -3 14
16 25 25 25 21 0 -5 5 -4 12 3 17 17 28 15 28 -5 0 -14 6 -11 26 12 14 17 22
23 18 15 -4 -8 8 -1 26 15 32 30 32 30 25 5 l-8 -24 39 28 39 29 -27 -29 c-42
-45 -37 -73 6 -36 20 16 20 16 7 -1 -21 -27 -7 -30 25 -5 19 15 24 16 15 5
-18 -23 -6 -35 19 -19 18 11 20 9 20 -9 0 -20 1 -21 18 -6 16 15 17 14 16 -14
-1 -45 -42 -68 -113 -64 -39 2 -72 -3 -106 -17 -27 -11 -59 -24 -70 -28 -11
-4 -42 -12 -70 -16 -40 -7 -50 -13 -51 -29 -1 -25 -40 -90 -47 -78 -3 5 -20
10 -37 11 -18 1 -41 9 -52 16 -11 8 -28 12 -37 8 -14 -5 -14 -3 2 21 26 39 1
35 -59 -10 -33 -25 -49 -44 -46 -55 4 -21 -23 -52 -37 -43 -6 3 -19 -4 -29
-16 l-20 -21 -18 31 c-24 40 -32 39 -40 -4 -3 -20 -12 -35 -20 -35 -15 0 -21
18 -33 110 -11 80 -14 90 -28 114 -10 19 -12 19 -47 2 -24 -11 -65 -18 -120
-19 -83 -2 -85 -2 -89 23 -3 14 -1 28 5 31 7 4 6 9 -1 13 -20 13 -11 34 25 56
19 13 47 23 60 23 22 0 25 3 20 22 -5 20 -3 22 15 18 19 -5 20 -4 10 16 -9 16
-9 21 0 21 7 0 5 7 -5 19 -17 19 -17 19 3 14 22 -6 29 11 10 23 -15 9 9 24 39
24 12 0 22 5 22 10 0 6 10 10 23 11 17 1 15 3 -11 12 -79 25 -197 -23 -310
-126 -44 -41 -45 -41 -38 -14 4 19 3 27 -6 27 -7 0 1 11 17 25 17 13 24 24 18
25 -8 0 -4 9 8 21 17 17 19 23 8 30 -11 6 -10 9 4 15 9 3 17 12 17 20 0 8 3
14 8 14 4 0 21 11 37 24 l30 24 -26 10 c-26 10 -45 47 -29 57 4 3 6 14 3 25
-4 15 2 22 22 30 33 13 97 10 107 -4 4 -6 8 -1 8 12 0 16 4 21 13 16 7 -4 9
-3 4 2 -5 5 -12 9 -16 9 -5 0 -25 15 -46 33 -21 17 -45 32 -54 33 -9 0 8 9 38
20 54 19 87 38 42 24 -14 -4 -21 -3 -18 2 7 12 -44 10 -64 -2 -12 -8 -12 -6 0
8 13 16 12 17 -15 7 -100 -39 -178 -103 -239 -198 -39 -62 -60 -74 -60 -35 0
11 -6 27 -14 36 -12 15 -11 17 3 17 9 0 16 7 16 15 0 8 -4 15 -9 15 -12 0 -9
33 4 42 6 4 2 8 -7 8 -19 0 -24 15 -9 24 9 6 8 83 -2 93 -12 12 -7 23 11 24
11 1 8 4 -8 8 l-25 7 30 17 c30 16 30 16 5 17 -24 0 -24 1 8 21 46 30 33 35
-23 10 l-47 -21 55 53 c47 44 52 53 35 54 -12 1 -31 -3 -42 -8 -12 -6 -3 6 19
26 29 27 32 33 13 21 -33 -19 -38 -4 -6 18 21 15 37 52 16 40 -5 -3 -7 -8 -4
-11 3 -3 -13 -19 -36 -35 -29 -22 -37 -32 -28 -38 8 -5 3 -8 -13 -7 -15 1 -27
7 -27 12 -1 6 -8 -2 -16 -17 -21 -41 -27 -34 -8 10 9 20 19 46 22 57 2 11 10
26 16 34 6 8 11 25 11 39 1 25 1 24 -26 -7 l-27 -32 -6 24 c-3 14 -3 40 0 59
l7 33 -28 -32 c-15 -18 -31 -30 -36 -27 -5 3 -9 82 -9 176 l0 170 34 72 c18
40 37 82 40 94 l7 22 -3144 0 -3145 0 48 -107z m3270 52 c0 -14 -81 -80 -128
-105 -22 -11 -23 -10 -17 12 11 33 24 48 74 80 50 31 71 35 71 13z m180 -76
c55 -28 104 -57 110 -64 11 -13 -165 74 -205 101 -39 28 -2 13 95 -37z m-20
-28 c67 -38 136 -72 154 -75 34 -7 179 -96 155 -96 -29 0 29 -28 126 -61 55
-19 103 -38 106 -43 4 -4 10 -3 14 4 6 9 10 9 16 -1 7 -12 9 -12 9 -1 0 10 10
8 35 -8 19 -12 39 -19 45 -15 5 3 10 1 10 -5 0 -6 6 -10 13 -9 26 3 47 -1 47
-11 0 -5 -8 -7 -17 -4 -15 5 -15 4 -3 -4 10 -8 19 -7 29 1 11 9 15 9 19 -2 3
-10 6 -10 12 -1 5 9 10 8 21 -2 16 -15 28 -16 48 -4 11 7 13 5 8 -6 -6 -17 8
-19 31 -5 7 5 12 3 12 -3 0 -7 6 -10 14 -7 8 3 17 3 21 -1 4 -4 23 -8 43 -9
56 -4 102 -14 97 -23 -2 -4 9 -6 26 -4 17 2 38 0 47 -5 10 -6 24 -6 34 0 14 7
20 6 24 -5 5 -14 8 -14 21 0 14 13 17 13 29 -3 8 -10 14 -13 14 -6 0 7 7 10
17 6 12 -5 14 -3 9 8 -4 8 -1 6 7 -3 8 -10 17 -15 20 -11 4 3 7 1 7 -6 0 -7 5
-9 10 -6 6 4 16 3 23 -2 7 -5 19 -9 27 -8 8 0 18 -4 22 -10 5 -6 8 -3 8 6 0 9
7 19 15 23 8 3 14 0 12 -6 -1 -6 4 -13 12 -16 8 -2 11 0 8 5 -3 5 9 9 28 9 19
-1 35 -6 35 -12 0 -6 7 -11 15 -11 8 0 15 4 15 9 0 13 44 4 57 -12 10 -12 11
-10 8 12 -4 22 -2 25 14 21 10 -2 18 -12 17 -20 0 -10 8 -17 21 -18 14 -1 19
3 16 12 -3 7 0 13 6 13 6 0 11 -4 11 -9 0 -4 15 -7 34 -6 26 3 35 -1 39 -15 4
-14 11 -17 27 -13 16 4 28 0 38 -13 10 -13 13 -14 9 -3 -3 9 4 21 16 29 20 12
21 12 8 -4 -11 -13 -11 -20 -3 -28 9 -9 12 -9 12 1 0 9 4 10 13 5 6 -5 27 -9
45 -9 17 0 32 -3 32 -8 0 -4 4 -6 8 -3 5 3 20 -1 35 -9 22 -11 27 -11 27 0 0
21 29 26 39 6 13 -23 61 -17 62 8 0 10 2 11 6 3 2 -6 22 -15 44 -18 21 -4 36
-10 33 -15 -3 -5 2 -6 10 -3 9 3 13 11 10 18 -3 6 4 0 15 -13 12 -13 21 -18
21 -12 0 6 7 8 15 5 8 -4 15 -1 15 5 0 6 5 11 11 11 5 0 8 -3 6 -7 -3 -5 -1
-17 4 -28 7 -19 8 -19 8 3 1 25 41 33 41 7 0 -22 18 -18 25 5 5 16 9 17 20 7
7 -6 11 -16 8 -21 -3 -4 3 -6 13 -3 11 4 32 9 47 13 21 5 25 9 15 15 -7 5 -9
9 -4 9 5 0 18 -7 28 -17 11 -9 18 -11 18 -5 0 7 5 12 11 12 5 0 8 -4 4 -9 -3
-5 -1 -12 5 -16 5 -3 10 -2 10 4 0 6 10 15 21 22 15 8 19 8 15 0 -4 -6 -3 -11
3 -11 6 0 8 -8 5 -17 -5 -14 -4 -15 4 -4 5 7 15 10 21 7 6 -4 11 -2 11 5 0 9
3 9 14 0 30 -25 45 -2 49 77 1 43 4 -32 5 -165 2 -187 5 -243 15 -243 8 0 9
-3 1 -8 -15 -9 -26 -722 -12 -722 6 0 24 -6 41 -14 18 -8 39 -17 47 -20 20 -9
49 -27 85 -52 17 -11 62 -38 100 -59 138 -75 229 -140 219 -156 -6 -11 -101
39 -240 125 -49 31 -134 80 -189 111 -55 30 -129 72 -165 94 -36 21 -157 92
-269 157 -240 140 -241 140 -223 152 11 7 7 14 -16 31 -17 12 -35 20 -40 19
-5 -2 -32 10 -58 25 -27 16 -119 68 -204 116 -133 76 -155 92 -158 115 -3 23
-8 26 -39 26 -35 0 -80 22 -237 115 -109 64 -150 96 -135 106 7 4 9 14 6 23
-6 14 -10 14 -27 4 -17 -11 -26 -10 -53 6 -17 10 -97 54 -177 98 -141 77 -175
102 -164 119 3 5 2 10 -3 10 -4 1 -17 3 -28 4 -21 3 -270 134 -315 165 -14 10
-59 35 -100 57 -108 57 -182 102 -208 126 -20 18 -24 19 -33 7 -6 -10 -12 -11
-16 -5 -5 6 -70 46 -145 88 -76 43 -138 80 -138 83 0 14 42 -4 150 -65z m0
-45 c123 -67 206 -116 563 -329 125 -75 225 -131 222 -124 -4 7 -1 5 7 -4 7
-9 15 -16 18 -15 3 0 25 -13 50 -30 39 -27 101 -64 275 -164 22 -13 92 -56
155 -95 63 -40 257 -157 430 -260 173 -103 340 -205 370 -225 84 -58 329 -207
490 -299 80 -46 237 -139 350 -206 113 -67 226 -134 252 -149 52 -29 62 -53
56 -136 l-3 -45 -37 3 c-52 4 -158 56 -338 166 -85 52 -247 150 -360 217 -113
68 -362 218 -555 334 -192 116 -519 312 -725 435 -631 375 -775 461 -1055 628
-149 89 -282 165 -296 171 -23 8 -43 -2 -170 -83 -153 -98 -1120 -680 -1429
-861 -102 -59 -268 -158 -370 -220 -206 -125 -495 -296 -730 -432 -85 -50
-211 -123 -280 -163 -343 -201 -405 -234 -425 -226 -9 3 -15 25 -17 58 -2 44
-6 53 -20 50 -22 -4 -24 21 -3 38 8 6 13 17 12 22 -1 6 6 12 17 13 10 2 24 9
30 16 8 9 7 10 -4 5 -20 -10 19 22 44 36 14 8 17 7 10 -3 -4 -7 15 0 42 15 55
32 83 55 44 37 -24 -12 -24 -11 -5 4 11 8 25 13 32 11 7 -3 15 0 19 6 4 7 3 8
-4 4 -7 -4 -12 -5 -12 -2 0 11 75 43 89 38 8 -2 11 0 8 5 -3 5 13 20 36 33 27
15 38 18 32 9 -6 -10 -4 -9 5 1 9 9 21 15 28 12 7 -2 11 2 10 8 -2 7 3 15 11
18 9 3 11 0 6 -8 -5 -9 -4 -11 4 -6 6 4 9 11 6 16 -7 11 116 83 139 82 25 -1
136 66 133 80 -1 6 22 26 51 45 28 18 52 31 52 28 0 -3 -23 -19 -51 -36 -88
-55 -44 -43 63 17 212 118 315 179 398 234 116 79 283 179 550 330 124 70 279
160 345 200 141 85 221 132 450 264 93 54 201 120 240 146 38 26 144 90 235
142 91 53 208 121 259 152 52 31 104 56 115 56 12 0 73 -29 136 -64z m-370 -3
c0 -5 -19 -19 -43 -33 -23 -14 -63 -37 -89 -53 -77 -44 -55 -21 35 38 83 54
97 61 97 48z m3213 -368 c-3 -9 -8 -14 -10 -11 -3 3 -2 9 2 15 9 16 15 13 8
-4z m1953 -41 c-4 -9 -9 -15 -11 -12 -3 3 -3 13 1 22 4 9 9 15 11 12 3 -3 3
-13 -1 -22z m-2791 -34 c3 -5 2 -10 -4 -10 -5 0 -13 5 -16 10 -3 6 -2 10 4 10
5 0 13 -4 16 -10z m649 -41 c-8 -14 -21 -11 -21 5 0 8 6 12 14 9 7 -3 10 -9 7
-14z m46 -9 c0 -5 -4 -10 -10 -10 -5 0 -10 5 -10 10 0 6 5 10 10 10 6 0 10 -4
10 -10z m1655 -170 c13 -6 15 -9 5 -9 -8 0 -22 4 -30 9 -18 12 -2 12 25 0z
m-75 -45 c-14 -8 -32 -14 -40 -14 -8 0 -1 7 15 14 39 18 57 18 25 0z m-1212
-128 c-58 -44 -73 -53 -64 -38 10 16 86 71 98 71 5 0 -10 -15 -34 -33z m95
-13 c-16 -13 -29 -28 -29 -34 -1 -5 -3 -13 -4 -17 -1 -5 -2 -11 -1 -15 0 -5
-2 -7 -6 -6 -5 1 -23 -6 -41 -16 -38 -20 -52 -15 -31 11 13 15 12 16 -6 9 -17
-6 -16 -3 5 20 19 20 21 26 8 21 -31 -11 -20 2 26 32 32 20 53 26 76 23 l30
-4 -27 -24z m10 -101 c-7 -2 -19 -2 -25 0 -7 3 -2 5 12 5 14 0 19 -2 13 -5z
m1357 -58 c0 -2 -10 -10 -22 -16 -21 -11 -22 -11 -9 4 13 16 31 23 31 12z
m-9070 -256 c0 -5 -4 -9 -10 -9 -5 0 -9 3 -8 8 1 4 -3 18 -10 32 l-13 25 20
-24 c12 -13 21 -27 21 -32z m2130 36 c0 -6 -149 -103 -190 -125 -46 -24 -10 3
88 66 106 68 102 66 102 59z m2370 -114 c36 -21 162 -92 280 -158 468 -260
440 -243 440 -280 l0 -34 -42 24 c-239 136 -430 243 -513 287 -55 30 -129 71
-163 92 -97 59 -138 73 -170 59 -26 -12 -120 -65 -577 -323 -235 -133 -259
-145 -270 -128 -14 22 4 58 32 65 27 6 265 138 602 333 91 53 180 101 199 107
47 17 101 3 182 -44z m-4600 -92 c0 -5 -9 -9 -20 -9 -22 0 -27 16 -7 23 15 5
27 -1 27 -14z m8020 5 c22 -9 40 -20 40 -25 0 -5 6 -9 13 -9 19 0 40 -57 33
-91 -3 -17 -1 -29 5 -29 6 0 7 -6 0 -17 -14 -26 -121 -16 -242 22 -9 3 -19 18
-22 34 -3 16 -9 41 -13 56 -6 26 -6 27 25 20 26 -6 37 -2 67 24 40 36 41 36
94 15z m-8649 -141 c-12 -20 -14 -14 -5 12 4 9 9 14 11 11 3 -2 0 -13 -6 -23z
m694 7 c-3 -5 -11 -10 -16 -10 -6 0 -7 5 -4 10 3 6 11 10 16 10 6 0 7 -4 4
-10z m8255 -40 c-7 -13 -21 -20 -38 -20 -20 0 -23 3 -12 9 8 6 17 8 21 5 4 -2
12 3 19 11 18 21 23 19 10 -5z m-8147 -14 c4 -10 1 -13 -8 -9 -8 3 -12 9 -9
14 7 12 11 11 17 -5z m8287 -16 c23 -15 5 -22 -36 -14 -36 7 -37 8 -14 15 35
10 33 10 50 -1z m128 -14 c0 -14 -7 -27 -14 -30 -8 -3 -14 -1 -14 4 0 5 -10
10 -22 13 -21 3 -20 5 12 20 19 9 36 16 36 17 1 0 2 -11 2 -24z m-8223 -2 c14
-6 13 -9 -6 -30 -17 -18 -19 -24 -8 -28 8 -2 21 -7 29 -9 20 -6 -70 -7 -92 -1
-23 7 -23 16 3 48 20 26 42 32 74 20z m8275 -14 c0 -5 -8 -10 -17 -10 -15 0
-16 2 -3 10 19 12 20 12 20 0z m107 -26 c-3 -3 -12 -4 -19 -1 -8 3 -5 6 6 6
11 1 17 -2 13 -5z m-7702 -24 c13 -6 15 -9 5 -9 -8 0 -22 4 -30 9 -18 12 -2
12 25 0z m-69 -7 c-3 -4 6 -13 21 -19 l28 -13 -30 5 c-23 4 -27 3 -15 -5 9 -7
10 -11 3 -11 -6 0 -15 5 -18 10 -8 12 1 40 11 40 4 0 4 -3 0 -7z m121 -9 c-3
-3 -12 -4 -19 -1 -8 3 -5 6 6 6 11 1 17 -2 13 -5z m-411 -45 c3 -6 -5 -3 -20
6 -14 10 -26 19 -26 22 0 7 39 -17 46 -28z m89 11 c3 -6 -1 -7 -9 -4 -18 7
-21 14 -7 14 6 0 13 -4 16 -10z m290 0 c13 -6 15 -9 5 -9 -8 0 -22 4 -30 9
-18 12 -2 12 25 0z m-575 -10 c0 -5 6 -10 14 -10 8 0 17 -4 20 -9 9 -13 -37 0
-52 16 -11 11 -11 13 2 13 9 0 16 -4 16 -10z m8620 -8 c0 -9 -6 -12 -16 -8 -9
3 -21 6 -27 6 -8 0 -8 3 1 8 20 13 42 10 42 -6z m-8679 -9 c13 -17 13 -17 -6
-3 -11 8 -22 16 -24 17 -2 2 0 3 6 3 6 0 17 -8 24 -17z m204 7 c3 -6 -1 -7 -9
-4 -18 7 -21 14 -7 14 6 0 13 -4 16 -10z m80 -22 c-9 -6 -19 -7 -22 -4 -4 3
-1 6 6 6 7 0 9 4 6 10 -4 6 1 7 11 3 15 -6 15 -7 -1 -15z m145 2 c0 -4 -8 -11
-17 -14 -10 -4 -14 -4 -10 0 4 4 2 13 -4 20 -8 9 -5 11 10 7 12 -3 21 -9 21
-13z m160 10 c8 -5 11 -10 5 -10 -5 0 -17 5 -25 10 -8 5 -10 10 -5 10 6 0 17
-5 25 -10z m100 0 c0 -13 -11 -13 -30 0 -12 8 -11 10 8 10 12 0 22 -4 22 -10z
m8065 0 c-3 -5 -14 -10 -23 -10 -15 0 -15 2 -2 10 20 13 33 13 25 0z m-9770
-21 c-44 -5 -90 -13 -102 -19 -32 -14 -29 -4 5 14 17 10 53 15 102 14 l75 -1
-80 -8z m660 -20 c11 -16 1 -19 -13 -3 -7 8 -8 14 -3 14 5 0 13 -5 16 -11z
m285 -15 c0 -2 -9 0 -20 6 -11 6 -20 13 -20 16 0 2 9 0 20 -6 11 -6 20 -13 20
-16z m-45 6 c3 -6 -1 -7 -9 -4 -18 7 -21 14 -7 14 6 0 13 -4 16 -10z m174 -21
c-7 -4 -18 -5 -25 -2 -10 4 -10 8 -1 18 9 9 16 10 25 2 10 -8 10 -12 1 -18z
m247 5 c1 -9 0 -13 -4 -10 -3 4 -7 14 -8 22 -1 9 0 13 4 10 3 -4 7 -14 8 -22z
m99 5 c-4 -5 -12 -9 -18 -8 -9 0 -8 2 1 6 6 2 9 10 6 15 -4 7 -2 8 5 4 6 -4 9
-12 6 -17z m395 16 c0 -2 -10 -9 -22 -15 -22 -11 -22 -10 -4 4 21 17 26 19 26
11z m-995 -23 c-3 -3 3 -11 13 -19 15 -11 13 -12 -10 -2 -31 13 -37 26 -13 26
8 0 13 -3 10 -5z m62 -16 c0 -8 -6 -12 -15 -9 -11 5 -11 7 0 14 7 5 13 9 14 9
0 0 1 -6 1 -14z m114 -3 c8 -6 25 -16 39 -23 l25 -13 -25 27 c-18 19 -20 25
-7 20 9 -3 17 -10 17 -15 0 -5 9 -9 21 -9 11 0 18 4 15 9 -3 4 7 6 22 2 24 -5
25 -6 5 -9 -13 -2 -20 -8 -17 -17 3 -7 0 -16 -7 -21 -8 -4 -10 -3 -5 4 4 7 2
12 -3 12 -6 0 -11 -5 -11 -11 0 -5 -4 -7 -10 -4 -5 3 -18 1 -27 -4 -17 -10
-16 -10 2 -11 16 0 17 -2 5 -9 -8 -6 -18 -7 -22 -5 -4 3 -8 -1 -8 -8 0 -11 -2
-10 -9 0 -5 9 -24 13 -54 11 -26 -2 -49 0 -53 4 -4 4 15 7 42 7 l49 1 -40 14
c-22 8 -41 15 -42 15 -2 0 -3 4 -3 9 0 11 39 3 57 -12 7 -5 19 -7 27 -4 9 4
14 1 12 -6 -1 -7 -1 -9 1 -4 3 4 14 7 26 8 22 0 22 0 0 9 -13 5 -23 14 -23 20
0 5 -6 10 -14 10 -8 0 -17 4 -20 9 -8 12 18 8 35 -6z m-377 -22 c-2 -3 -12 3
-22 13 -16 17 -16 18 5 5 12 -7 20 -15 17 -18z m4745 -127 c146 -81 279 -154
295 -163 38 -21 41 -33 17 -62 l-19 -24 -539 -1 c-604 -2 -739 3 -753 26 -20
31 -9 46 58 79 37 18 168 89 291 158 123 70 238 130 255 134 80 21 116 7 395
-147z m-4634 128 c-3 -3 -11 0 -18 7 -9 10 -8 11 6 5 10 -3 15 -9 12 -12z
m240 0 c-3 -3 -11 0 -18 7 -9 10 -8 11 6 5 10 -3 15 -9 12 -12z m230 8 c3 -6
-1 -7 -9 -4 -18 7 -21 14 -7 14 6 0 13 -4 16 -10z m-54 -28 c-7 -2 -18 1 -23
6 -8 8 -4 9 13 5 13 -4 18 -8 10 -11z m-493 -20 c17 -2 32 -7 32 -11 0 -10
-54 -7 -62 4 -5 7 -8 6 -8 -1 0 -16 -48 -14 -54 2 -4 11 1 13 22 8 22 -5 24
-3 12 6 -12 10 -12 11 5 4 11 -4 35 -9 53 -12z m259 12 c-3 -3 -12 -4 -19 -1
-8 3 -5 6 6 6 11 1 17 -2 13 -5z m223 -8 c0 -3 -4 -8 -10 -11 -5 -3 -10 -1
-10 4 0 6 5 11 10 11 6 0 10 -2 10 -4z m-725 -16 c3 -5 2 -10 -4 -10 -5 0 -13
5 -16 10 -3 6 -2 10 4 10 5 0 13 -4 16 -10z m30 0 c3 -5 1 -10 -4 -10 -6 0
-11 5 -11 10 0 6 2 10 4 10 3 0 8 -4 11 -10z m30 0 c3 -5 1 -10 -4 -10 -6 0
-11 5 -11 10 0 6 2 10 4 10 3 0 8 -4 11 -10z m45 -6 c0 -2 -7 -4 -15 -4 -8 0
-15 4 -15 10 0 5 7 7 15 4 8 -4 15 -8 15 -10z m35 6 c3 -5 -1 -10 -10 -10 -9
0 -13 5 -10 10 3 6 8 10 10 10 2 0 7 -4 10 -10z m200 -8 c-3 -3 -11 0 -18 7
-9 10 -8 11 6 5 10 -3 15 -9 12 -12z m65 8 c0 -5 -2 -10 -4 -10 -3 0 -8 5 -11
10 -3 6 -1 10 4 10 6 0 11 -4 11 -10z m367 4 c-3 -3 -12 -4 -19 -1 -8 3 -5 6
6 6 11 1 17 -2 13 -5z m-862 -14 c3 -6 -1 -7 -9 -4 -18 7 -21 14 -7 14 6 0 13
-4 16 -10z m59 1 c4 -5 -3 -7 -14 -4 -23 6 -26 13 -6 13 8 0 17 -4 20 -9z
m8223 -107 c-3 -3 -12 -4 -19 -1 -8 3 -5 6 6 6 11 1 17 -2 13 -5z m282 -190
c10 -9 -55 -3 -69 6 -10 6 -2 7 25 3 22 -3 42 -7 44 -9z m-3959 -423 c0 -5
-11 -12 -25 -15 -20 -5 -25 -13 -26 -39 l-1 -32 -10 29 c-9 25 -8 31 13 47 26
20 49 25 49 10z m310 -34 c0 -42 -1 -43 -34 -45 -23 -2 -36 3 -40 13 -10 26 5
45 33 44 23 -2 24 -2 4 -6 -15 -3 -23 -12 -23 -24 0 -15 6 -20 23 -17 18 2 23
10 25 41 4 50 12 47 12 -6z m310 41 c0 -2 -6 -23 -14 -47 -15 -51 -36 -66 -36
-27 0 30 -9 37 -38 29 -18 -4 -20 -9 -11 -24 5 -11 15 -17 22 -13 8 5 8 3 -1
-7 -10 -11 -15 -10 -29 4 -27 26 -6 52 43 53 28 0 40 5 42 17 2 9 8 17 13 17
5 0 9 -1 9 -2z m-870 -28 c19 -4 27 -8 18 -9 -10 -1 -18 -5 -18 -11 0 -5 8
-11 18 -11 16 -1 16 -2 0 -6 -10 -2 -18 -9 -18 -14 0 -5 -4 -9 -10 -9 -5 0
-10 11 -10 25 0 16 -6 25 -15 25 -8 0 -15 -9 -15 -20 0 -11 -4 -20 -10 -20 -5
0 -10 11 -10 25 0 15 -6 25 -14 25 -8 0 -21 3 -30 6 -9 3 -16 2 -16 -4 0 -5 9
-12 20 -15 24 -6 27 -35 4 -44 -8 -3 -25 -1 -37 5 -21 10 -20 11 8 12 l30 0
-24 19 c-51 39 7 48 129 21z m326 9 c4 -7 0 -9 -13 -5 -23 7 -48 -16 -40 -38
3 -8 18 -16 34 -19 27 -4 27 -4 -4 -6 -23 -1 -35 5 -43 18 -13 25 -13 27 6 45
18 19 50 21 60 5z m-196 -40 c0 -22 -5 -29 -20 -29 -15 0 -20 7 -20 29 0 28
16 44 33 34 4 -2 7 -17 7 -34z m40 5 c0 -21 -4 -33 -10 -29 -5 3 -10 19 -10
36 0 16 5 29 10 29 6 0 10 -16 10 -36z m425 26 c3 -5 -1 -10 -10 -10 -9 0 -13
5 -10 10 3 6 8 10 10 10 2 0 7 -4 10 -10z m70 0 c3 -5 -4 -11 -17 -11 l-23 -2
23 -4 c12 -2 22 -9 22 -14 0 -5 -10 -9 -22 -10 -22 -1 -22 -1 2 -9 24 -8 23
-8 -7 -9 -30 -1 -33 2 -33 27 0 16 3 32 7 35 10 10 41 8 48 -3z m75 -5 c-7 -8
-16 -12 -21 -9 -5 3 -5 -6 1 -20 7 -21 6 -26 -5 -26 -8 0 -15 6 -15 14 0 8 -3
21 -6 29 -5 14 3 18 50 26 5 0 3 -6 -4 -14z m-669 -2 c-8 -3 -9 -8 -3 -12 7
-4 6 -12 -3 -24 -11 -16 -13 -15 -17 13 -4 25 -1 30 16 29 13 0 16 -3 7 -6z
m305 -18 c-4 -14 -2 -25 4 -25 5 0 10 11 10 25 0 14 5 25 10 25 13 0 9 -52 -4
-62 -5 -3 -15 -4 -23 -1 -16 6 -18 63 -2 63 7 0 9 -10 5 -25z m87 18 c-8 -3
-11 -14 -7 -28 3 -12 1 -26 -5 -29 -7 -5 -11 5 -11 28 0 28 4 36 18 35 10 0
12 -3 5 -6z m-5063 -355 c0 -19 -2 -20 -10 -8 -13 19 -13 30 0 30 6 0 10 -10
10 -22z m120 -8 c0 -5 -7 -7 -15 -4 -8 4 -15 8 -15 10 0 2 7 4 15 4 8 0 15 -4
15 -10z m47 -129 c22 -10 25 -9 20 4 -4 8 -2 15 2 15 5 0 12 -7 15 -16 4 -11
13 -14 27 -11 15 4 19 2 15 -9 -5 -12 7 -19 17 -11 2 1 11 -4 19 -11 9 -7 22
-11 29 -9 8 2 11 2 7 0 -5 -3 -8 -9 -8 -14 0 -6 4 -7 10 -4 5 3 19 1 30 -5 13
-7 20 -7 20 0 0 5 5 10 11 10 5 0 7 -5 4 -10 -12 -19 15 -41 35 -30 15 8 22 5
36 -12 11 -16 15 -17 11 -5 -8 23 2 22 31 -5 14 -13 21 -16 17 -8 -8 13 -6 13
8 1 9 -7 26 -11 37 -8 11 3 18 1 14 -4 -3 -5 3 -9 13 -9 10 0 25 -5 33 -11 12
-8 8 -9 -15 -6 -16 2 -24 2 -17 0 7 -3 10 -8 7 -12 -2 -5 7 -6 22 -3 17 3 24
1 19 -6 -4 -7 6 -9 29 -6 22 3 35 0 35 -7 0 -6 7 -9 15 -5 8 3 15 1 15 -4 0
-5 7 -6 17 -3 11 4 14 3 9 -5 -4 -7 -2 -12 3 -12 6 0 11 6 12 13 0 10 2 10 6
0 2 -7 11 -13 19 -13 8 0 14 -5 14 -11 0 -5 -4 -8 -8 -5 -5 3 -9 -1 -9 -9 0
-10 5 -11 17 -5 17 9 45 8 56 -3 3 -3 19 -3 35 0 16 3 35 1 42 -5 7 -6 26 -9
43 -6 22 3 25 2 14 -6 -8 -5 -11 -10 -7 -10 4 0 19 7 33 16 13 9 27 14 31 11
3 -4 -2 -9 -11 -13 -9 -3 -16 -14 -16 -24 0 -10 -9 -21 -19 -25 -11 -3 -25
-13 -33 -23 -12 -15 -11 -16 5 -3 9 8 20 11 24 7 3 -3 1 -6 -5 -6 -6 0 -19
-14 -27 -31 -13 -24 -14 -34 -4 -45 9 -11 7 -14 -10 -14 -11 0 -21 5 -21 12 0
6 -3 9 -6 5 -3 -3 14 -32 38 -64 60 -79 62 -82 39 -80 -10 0 -17 7 -14 13 3 7
-5 21 -16 31 -12 9 -21 23 -21 30 0 20 -32 15 -60 -8 -25 -21 -25 -21 -2 -16
20 5 21 3 10 -10 -11 -14 -10 -15 12 -8 31 9 25 3 -22 -23 -31 -18 -37 -19
-42 -5 -3 8 -4 19 0 24 10 17 -15 9 -67 -22 -37 -22 -61 -29 -80 -25 -15 3
-34 -1 -45 -9 -22 -17 -44 -19 -44 -5 0 5 14 25 30 44 30 34 26 48 -10 39 -26
-7 -80 -104 -80 -145 0 -47 27 -68 95 -69 l50 -2 -40 -7 -40 -7 48 -2 c65 -1
108 21 162 83 34 38 45 46 45 31 0 -23 -56 -115 -69 -115 -6 0 -38 -22 -73
-49 -35 -26 -74 -51 -86 -55 -26 -9 -27 -14 -7 -40 16 -22 20 -50 6 -42 -5 4
-7 -4 -3 -16 5 -22 4 -22 -21 3 -17 16 -43 28 -68 32 -55 7 -78 30 -61 57 33
54 -42 152 -105 137 -17 -4 -17 -4 2 -12 26 -11 68 -59 55 -63 -6 -2 -10 -12
-10 -21 0 -10 -12 -28 -27 -42 l-26 -24 16 25 c22 33 21 45 -4 47 -14 1 -19
-3 -15 -13 3 -8 1 -14 -5 -14 -7 0 -9 -10 -5 -24 4 -18 1 -25 -14 -29 -23 -6
-26 12 -9 45 7 12 7 24 2 29 -16 16 -43 -1 -63 -40 -15 -29 -19 -32 -20 -14 0
41 99 113 119 86 3 -4 17 -9 30 -11 20 -2 22 0 11 13 -15 18 -76 19 -106 2
-137 -81 -164 -179 -89 -327 17 -34 28 -45 45 -45 13 0 26 -7 28 -15 3 -8 16
-23 29 -33 13 -10 21 -22 18 -27 -3 -4 2 -13 10 -20 28 -24 14 -102 -45 -250
-21 -52 -46 -125 -56 -162 -13 -48 -21 -63 -26 -50 -6 15 -7 15 -8 -3 -1 -18
-2 -17 -14 5 -8 14 -12 29 -9 35 4 5 2 6 -2 2 -13 -12 -15 -40 -4 -54 6 -7 8
-16 5 -22 -3 -5 0 -12 6 -15 10 -5 10 -7 1 -12 -10 -4 -9 -9 2 -21 18 -17 21
-58 3 -47 -7 4 -8 3 -4 -5 4 -6 5 -30 1 -52 l-7 -40 -24 26 c-19 21 -24 38
-26 88 l-1 62 -7 -50 c-5 -37 -7 -17 -8 75 -1 83 2 120 8 110 7 -11 9 1 8 38
0 29 -5 55 -9 58 -5 3 -9 10 -9 15 0 6 4 7 10 4 7 -4 7 3 0 19 -5 14 -6 26 -2
26 4 0 4 39 0 88 -3 48 -7 139 -7 202 -1 63 -4 151 -7 195 l-7 80 -46 23 c-32
15 -65 22 -104 22 -55 0 -57 1 -75 38 -11 20 -27 60 -37 89 -18 50 -18 53 -1
72 33 37 189 53 249 27 16 -8 17 12 18 335 1 189 3 337 6 328 2 -9 16 -21 30
-28z m4283 -216 c0 -9 -9 -15 -25 -15 -24 0 -32 10 -18 23 12 13 43 7 43 -8z
m157 -63 c15 -44 16 -64 2 -39 -13 22 -45 22 -53 1 -4 -9 -9 -15 -12 -12 -3 3
5 26 17 52 13 25 25 43 28 41 2 -3 11 -22 18 -43z m-156 27 c46 -24 36 -89
-13 -89 -40 0 -54 16 -50 59 4 44 22 52 63 30z m529 2 c0 -6 -12 -9 -26 -8
-30 2 -50 -22 -41 -48 6 -14 14 -15 47 -10 27 5 40 3 40 -5 0 -6 -4 -8 -10 -5
-5 3 -19 1 -30 -5 -17 -9 -27 -8 -46 5 -28 18 -31 41 -7 67 17 19 73 25 73 9z
m400 -39 c0 -47 -1 -48 -31 -47 -58 0 -66 70 -9 70 13 0 25 6 28 13 8 24 12
11 12 -36z m4317 1 c-3 -10 -5 -2 -5 17 0 19 2 27 5 18 2 -10 2 -26 0 -35z
m-9724 -43 l6 -45 -17 47 c-9 26 -20 50 -24 54 -5 4 -8 12 -8 18 0 6 8 2 19
-9 10 -11 21 -40 24 -65z m4877 70 c12 -8 12 -10 1 -10 -9 0 -12 -9 -9 -30 3
-16 1 -30 -4 -30 -4 0 -8 11 -8 24 0 13 -3 31 -6 40 -7 18 4 20 26 6z m-50
-10 c0 -5 -10 -10 -22 -9 -22 0 -22 1 -3 9 11 5 21 9 23 9 1 1 2 -3 2 -9z
m218 -3 c-1 -2 4 -12 12 -22 13 -16 13 -18 0 -13 -8 2 -17 15 -18 29 -2 13 -1
21 3 17 4 -3 5 -8 3 -11z m248 3 c13 5 24 6 24 1 0 -5 -9 -11 -20 -14 -14 -3
-20 -14 -20 -31 0 -14 -5 -26 -11 -26 -7 0 -8 11 -4 30 6 26 4 30 -14 30 -16
0 -21 -6 -21 -29 0 -28 -1 -29 -52 -29 -29 0 -58 4 -65 10 -7 6 -14 5 -18 -2
-8 -14 -42 -13 -51 2 -5 8 -2 9 9 5 29 -11 47 3 42 32 l-5 26 11 -27 c14 -37
38 -37 31 -2 -3 19 -1 25 7 20 6 -4 11 -19 11 -32 0 -16 5 -24 13 -21 6 2 12
16 12 30 -1 15 4 27 11 27 7 0 9 -10 6 -25 -3 -18 0 -25 12 -25 10 0 16 9 16
24 0 25 27 40 44 25 5 -4 19 -3 32 1z m-3366 -33 c14 -3 35 -8 47 -10 13 -4
24 0 27 9 3 8 11 14 18 13 10 0 10 -2 1 -6 -7 -2 -13 -9 -13 -15 0 -6 7 -8 15
-5 8 4 17 2 20 -3 8 -12 45 -8 45 5 0 14 31 16 47 3 7 -5 14 -5 18 2 8 13 35
13 35 -1 0 -5 -4 -8 -9 -5 -5 3 -11 0 -14 -7 -4 -10 4 -13 26 -13 18 1 37 5
43 9 7 4 17 0 24 -8 7 -8 9 -15 6 -15 -4 0 -1 -6 6 -14 9 -10 18 -11 31 -5 16
9 17 -50 17 -1187 0 -953 -3 -1195 -12 -1191 -7 2 -22 1 -33 -3 -12 -4 -24 -2
-30 6 -7 10 -14 11 -25 3 -13 -10 -13 -10 0 -7 8 3 24 -4 34 -15 18 -19 18
-20 1 -14 -9 4 -25 2 -33 -5 -13 -10 -14 -10 -8 0 10 16 -20 46 -39 38 -19 -7
-21 39 -2 48 6 4 2 4 -11 2 -17 -3 -22 -1 -18 10 3 8 1 14 -4 14 -6 0 -10 6
-10 13 0 11 -30 51 -65 88 -8 9 -15 21 -15 27 0 6 -7 18 -16 26 -9 10 -11 16
-4 16 8 0 9 10 4 33 -8 35 -8 35 1 90 5 27 3 37 -7 37 -10 0 -10 2 1 9 8 5 12
18 8 30 -3 12 0 21 6 22 8 0 8 2 0 6 -7 2 -13 11 -13 19 0 9 3 13 8 11 4 -3 7
8 8 23 1 15 4 36 9 46 9 22 9 152 0 209 -4 22 -9 54 -11 70 -19 122 -108 351
-201 518 -18 32 -31 66 -30 76 2 10 21 37 44 59 38 38 90 129 98 174 7 34 37
108 45 108 4 0 7 6 8 13 1 6 4 35 8 63 5 41 1 63 -21 118 -15 38 -33 76 -41
85 -40 49 -93 101 -104 101 -9 0 -9 -4 1 -17 13 -15 12 -15 -9 -4 -21 11 -132
12 -129 1 2 -12 -39 -70 -51 -70 -7 0 -17 -11 -22 -25 -5 -14 -14 -25 -19 -25
-5 0 -16 -6 -23 -14 -15 -15 -96 -28 -103 -17 -2 4 10 8 27 9 41 3 48 8 64 48
19 46 18 81 -6 114 -24 34 -79 70 -107 70 -16 0 -18 -6 -15 -35 5 -40 -5 -43
-42 -14 -15 12 -44 22 -64 24 -20 2 -36 7 -35 13 2 6 -21 28 -49 48 -57 42
-51 56 11 25 46 -24 65 -27 37 -6 -10 7 -15 18 -12 24 4 5 0 13 -7 18 -22 13
-25 37 -6 55 15 14 18 14 23 2 7 -18 36 -18 60 1 10 8 23 12 27 9 5 -3 9 -1 9
5 0 6 14 18 31 27 26 13 33 14 40 2 5 -7 9 -16 9 -20 0 -5 4 -8 10 -8 5 0 7 7
3 16 -5 14 -3 15 15 5 27 -14 32 -14 26 3 -3 8 0 17 7 22 8 5 10 3 4 -6 -6
-10 -4 -12 7 -7 9 3 21 0 28 -6 10 -9 11 -9 5 1 -5 10 -2 13 11 11 11 -2 25 0
33 5 10 7 12 6 6 -4 -6 -10 -2 -11 19 -6 15 4 26 2 26 -4 0 -5 7 -10 15 -10 8
0 15 5 15 12 0 6 10 3 22 -8 12 -10 18 -13 13 -5 -6 11 -4 13 9 8 10 -4 15 -3
11 3 -3 6 1 10 9 10 9 0 16 -4 16 -9 0 -6 15 -4 33 4 27 11 37 11 47 2 10 -10
11 -7 6 13 -6 22 -5 23 6 9 7 -9 24 -18 38 -22z m2847 -2 c2 -28 1 -28 -5 -5
-10 31 -36 33 -40 3 -2 -13 -7 -23 -11 -23 -4 0 -7 10 -7 23 1 30 -26 28 -35
-3 -6 -23 -7 -23 -8 7 l-1 33 53 -3 c50 -2 52 -3 54 -32z m-2707 -5 c0 -5 -5
-10 -11 -10 -5 0 -7 5 -4 10 3 6 8 10 11 10 2 0 4 -4 4 -10z m4785 -21 c20
-19 20 -33 20 -1907 0 -1658 -2 -1891 -15 -1916 -8 -16 -22 -31 -30 -34 -13
-3 -13 -2 0 7 13 10 13 11 0 11 -12 1 -11 4 4 15 11 8 16 18 13 22 -4 4 -13 1
-19 -5 -17 -17 -29 -15 -26 6 2 12 -3 16 -19 15 -13 -2 -23 1 -23 6 0 5 -12
23 -26 40 -14 17 -23 35 -19 41 4 6 1 9 -7 8 -7 -2 -12 2 -11 9 1 6 -4 17 -12
23 -9 8 -15 8 -15 2 0 -6 5 -13 10 -15 6 -3 5 -4 -2 -3 -7 1 -17 16 -23 32
-11 31 -53 84 -67 84 -5 0 -6 -4 -3 -10 3 -6 -1 -7 -10 -4 -12 5 -13 9 -4 21
10 11 9 13 -2 11 -8 -2 -17 -7 -21 -13 -4 -6 -8 -2 -8 8 0 9 -4 17 -9 17 -5 0
-16 3 -24 6 -12 4 -17 -3 -20 -28 -2 -18 -5 376 -5 876 -1 500 0 907 2 905 3
-2 6 -33 7 -69 2 -59 3 -62 17 -42 8 12 21 22 28 22 8 0 14 4 14 8 0 5 -7 9
-15 9 -8 0 -15 -5 -15 -10 0 -6 -2 -8 -5 -5 -13 13 10 38 41 44 19 3 35 9 35
13 10 48 6 106 -7 119 -14 14 -16 13 -14 -4 4 -34 0 -42 -17 -39 -10 1 -17 8
-15 15 1 6 -2 9 -7 6 -5 -4 -12 -2 -16 4 -11 18 -24 10 -27 -17 -4 -35 -18
1031 -18 1393 l0 273 31 35 c30 34 32 35 117 39 139 6 214 -2 237 -24z m-3461
-1 c14 -13 26 -32 27 -43 5 -63 -5 -920 -11 -875 -4 30 -7 49 -8 42 -1 -7 -10
-16 -19 -19 -23 -8 -77 -46 -81 -55 -2 -5 -12 -8 -23 -8 -11 0 -22 -7 -25 -15
-4 -8 -10 -12 -15 -9 -5 3 -9 0 -9 -5 0 -6 -6 -11 -13 -11 -7 0 -26 -16 -41
-35 -16 -19 -34 -35 -42 -35 -8 0 -14 -5 -14 -11 0 -16 -73 -103 -90 -107 -8
-2 -18 -9 -22 -15 -4 -7 -9 -10 -10 -7 -1 3 -4 262 -8 575 l-6 570 -2 -684
c-1 -376 -4 -682 -7 -680 -2 3 -5 311 -6 686 -1 560 1 685 12 698 56 69 43 65
223 65 157 0 166 -1 190 -22z m-1994 8 c0 -11 -19 -15 -25 -6 -3 5 1 10 9 10
9 0 16 -2 16 -4z m7340 -42 c0 -6 10 -14 23 -18 12 -3 22 -5 22 -4 0 1 10 -4
22 -10 14 -8 20 -18 16 -31 -3 -13 3 -23 19 -32 12 -6 32 -21 44 -33 23 -23
94 -166 94 -189 0 -9 6 -18 13 -20 9 -4 8 -8 -3 -16 -12 -8 -16 -5 -18 14 -2
14 -8 23 -13 20 -5 -4 -9 1 -9 10 0 9 5 13 10 10 13 -8 13 3 0 18 -6 7 -17 21
-25 32 -14 19 -14 18 -5 -9 9 -25 8 -27 -3 -17 -12 9 -16 7 -20 -14 -2 -15 1
-32 9 -40 17 -17 0 -25 -38 -18 -14 3 -36 0 -48 -7 -21 -11 -21 -12 -3 -25 17
-13 16 -14 -9 -15 -16 0 -28 -5 -28 -11 0 -8 13 -10 38 -6 46 6 72 -7 72 -33
0 -11 7 -20 15 -20 8 0 15 4 15 9 0 5 12 8 26 7 24 -1 25 -3 19 -41 -8 -51
-72 -188 -84 -180 -6 3 -15 -3 -21 -14 -6 -12 -22 -32 -37 -47 -25 -25 -30
-26 -92 -19 -36 4 -91 8 -122 9 -31 0 -63 7 -72 14 -20 17 -54 7 -62 -18 -6
-18 -7 -18 -32 3 -34 29 -80 98 -89 130 -3 15 -11 27 -16 27 -5 0 -8 10 -7 23
1 12 -3 33 -8 47 -6 14 -9 30 -7 35 1 6 5 36 8 68 5 48 2 61 -13 76 -11 11
-18 21 -15 23 2 2 5 15 7 29 2 14 17 33 35 44 17 11 31 26 32 33 0 7 7 15 15
18 8 4 13 9 11 13 -9 14 54 111 72 111 10 0 25 9 35 20 9 11 26 20 37 20 11 0
20 5 20 10 0 6 3 9 8 8 4 -1 19 6 35 16 41 28 88 35 109 17 10 -9 18 -21 18
-27z m-7390 16 c0 -5 -7 -7 -15 -4 -8 4 -15 8 -15 10 0 2 7 4 15 4 8 0 15 -4
15 -10z m5599 -1888 c0 -1141 -3 -1853 -9 -1862 -6 -10 -10 210 -11 600 -1
582 -1 3102 0 3108 1 1 5 2 10 2 6 0 10 -693 10 -1848z m-1872 1816 c-3 -8 -6
-5 -6 6 -1 11 2 17 5 13 3 -3 4 -12 1 -19z m29 3 c0 -11 -4 -17 -8 -15 -4 3
-8 12 -8 20 0 8 4 14 8 14 4 0 8 -9 8 -19z m3824 9 c0 -5 -5 -10 -11 -10 -5 0
-7 5 -4 10 3 6 8 10 11 10 2 0 4 -4 4 -10z m-4103 -22 c-3 -8 -6 -5 -6 6 -1
11 2 17 5 13 3 -3 4 -12 1 -19z m60 0 c-3 -8 -6 -5 -6 6 -1 11 2 17 5 13 3 -3
4 -12 1 -19z m267 6 c3 -8 2 -12 -4 -9 -6 3 -10 10 -10 16 0 14 7 11 14 -7z
m3745 -44 c0 -10 -2 -11 -6 -2 -2 6 -8 10 -12 8 -4 -3 -13 0 -21 6 -12 8 -11
9 3 4 15 -5 17 -2 12 17 -7 22 -7 22 9 2 8 -11 15 -27 15 -35z m-7669 -36 c0
-8 -7 -14 -15 -14 -17 0 -18 2 -9 24 7 18 24 12 24 -10z m38 14 c7 -7 12 -16
12 -20 0 -15 -15 -8 -28 12 -13 22 -3 27 16 8z m236 -83 c3 -9 0 -15 -9 -15
-8 0 -15 7 -15 15 0 8 4 15 9 15 5 0 11 -7 15 -15z m-205 -35 c1 13 2 13 11 0
5 -8 7 -23 4 -32 -3 -10 -1 -18 4 -18 12 0 126 -113 124 -122 -1 -4 6 -4 15
-1 10 4 14 2 10 -4 -9 -14 104 -13 122 1 11 8 13 8 7 -1 -10 -18 5 -16 32 3
25 17 65 28 57 14 -3 -5 -1 -11 5 -15 5 -3 10 -1 10 5 0 15 72 2 86 -16 9 -11
15 -9 33 9 l23 22 -17 -27 c-28 -45 -79 -70 -155 -76 l-68 -5 -6 -48 c-8 -62
-22 -63 -24 -1 -3 52 -31 87 -64 79 -10 -3 -16 -1 -13 3 3 5 -16 18 -41 30
-45 19 -95 56 -157 114 -16 15 -40 34 -53 43 -33 21 -30 36 6 31 25 -4 30 -1
31 16 0 21 1 21 9 1 6 -13 9 -15 9 -5z m-363 -48 l-29 -27 23 32 c13 18 26 30
29 28 3 -3 -8 -18 -23 -33z m869 22 c21 -22 17 -24 -25 -14 -28 6 -30 8 -10 9
20 1 22 3 10 11 -9 6 -10 10 -3 10 6 0 19 -7 28 -16z m-738 0 c-3 -3 -12 -4
-19 -1 -8 3 -5 6 6 6 11 1 17 -2 13 -5z m-322 -24 c3 -5 -1 -10 -9 -10 -8 0
-18 5 -21 10 -3 6 1 10 9 10 8 0 18 -4 21 -10z m92 -13 c-5 -14 -67 -51 -74
-44 -1 2 9 14 24 28 14 13 23 17 19 9 -4 -8 1 -5 10 8 18 24 30 23 21 -1z
m163 -5 c0 -5 -15 -19 -32 -32 l-33 -23 29 31 c31 34 36 37 36 24z m60 -5 c0
-2 -10 -12 -22 -23 l-23 -19 19 23 c18 21 26 27 26 19z m700 -7 c0 -5 -5 -10
-11 -10 -5 0 -7 5 -4 10 3 6 8 10 11 10 2 0 4 -4 4 -10z m-1071 -3 c-2 -1 -12
-9 -21 -16 -15 -12 -18 -11 -18 3 0 10 8 16 22 16 12 0 19 -1 17 -3z m502
-105 c71 -71 99 -94 107 -86 6 7 8 15 4 20 -4 4 -2 4 4 1 7 -4 15 0 18 9 3 8
2 12 -4 9 -14 -9 -12 7 4 28 11 14 15 15 19 5 4 -8 8 -5 12 9 4 12 13 19 20
17 10 -4 5 -17 -19 -49 -31 -40 -42 -93 -18 -88 5 1 16 -5 24 -14 9 -12 9 -15
1 -9 -19 11 -16 0 13 -45 14 -23 20 -38 13 -34 -18 11 -4 -53 26 -116 25 -55
24 -95 -1 -62 -7 10 -13 23 -14 28 0 6 5 3 11 -5 8 -12 9 -11 7 5 -2 11 -10
19 -18 18 -8 -2 -20 9 -27 22 -6 14 -7 23 -2 19 12 -7 11 37 -1 56 -8 12 -10
12 -15 -2 -10 -26 -27 -13 -100 78 -38 46 -71 84 -74 84 -3 0 0 -5 7 -12 16
-16 15 -31 0 -22 -7 5 -5 -3 4 -16 9 -14 21 -24 26 -23 5 1 9 -5 8 -15 0 -9 4
-16 9 -15 6 1 11 -6 11 -15 0 -21 153 -234 164 -227 4 3 7 -1 7 -8 -1 -6 31
-77 70 -157 118 -237 141 -341 107 -465 l-13 -50 4 45 4 45 -15 -45 c-20 -64
-66 -173 -77 -185 -7 -7 -7 -5 -2 4 5 9 4 12 -3 7 -7 -4 -12 -11 -12 -16 0 -5
-12 -35 -27 -67 -14 -32 -26 -61 -25 -64 1 -3 -22 -28 -50 -55 -28 -27 -72
-69 -97 -94 -25 -24 -49 -44 -53 -45 -11 0 -69 -79 -94 -127 -13 -27 -29 -48
-34 -48 -9 0 -60 73 -60 86 0 4 7 1 15 -6 8 -7 15 -19 15 -27 0 -8 4 -11 10
-8 6 4 4 17 -5 36 -17 31 -10 40 10 12 11 -15 15 -12 39 23 26 41 76 84 96 84
5 0 10 4 10 9 0 4 35 34 79 66 61 45 85 71 110 117 42 76 35 95 -11 32 -40
-54 -78 -91 -120 -117 -26 -16 -28 -16 -28 -1 0 10 3 14 7 11 10 -11 43 24 43
45 0 10 5 18 10 18 19 0 90 72 90 91 0 10 13 47 30 82 25 55 31 81 36 178 6
112 -11 281 -35 341 -13 30 -13 11 -2 -29 11 -38 -1 -52 -26 -31 -15 11 -16
11 -10 -5 4 -11 3 -16 -4 -12 -14 9 -40 -15 -32 -29 3 -6 -3 -2 -14 9 -11 11
-19 23 -16 27 2 4 -14 1 -36 -7 -22 -8 -49 -12 -60 -10 -43 8 -92 39 -111 70
-24 39 -27 59 -3 25 9 -14 26 -32 37 -40 22 -16 65 -36 53 -24 -4 4 5 13 19
21 35 18 44 17 16 -3 -30 -21 -28 -33 6 -30 25 3 29 10 23 44 0 4 -17 14 -37
21 -30 11 -33 15 -22 28 12 15 11 15 -9 4 -22 -11 -34 1 -13 14 16 10 -1 37
-19 30 -12 -5 -13 -3 -4 6 14 15 -5 39 -25 31 -11 -4 -11 -6 0 -14 10 -7 9 -8
-4 -4 -10 3 -18 1 -18 -5 0 -6 -4 -7 -10 -4 -5 3 -10 11 -10 16 0 6 4 8 9 5 5
-3 11 0 14 8 4 9 0 13 -11 12 -12 -2 -18 -14 -20 -41 -2 -21 -10 -48 -18 -59
-13 -19 -14 -16 -14 37 0 36 -4 56 -10 52 -5 -3 -10 -17 -10 -31 0 -14 -6 -24
-14 -24 -8 0 -17 -6 -19 -12 -3 -7 -3 5 0 27 4 37 3 39 -9 17 -8 -12 -17 -19
-21 -16 -4 4 -7 0 -7 -9 0 -10 -4 -17 -10 -17 -5 0 -7 -7 -4 -15 4 -8 11 -12
18 -8 6 4 4 -2 -4 -12 -14 -17 -13 -18 3 -12 9 3 17 2 17 -2 0 -5 -7 -11 -15
-15 -8 -3 -15 -12 -15 -20 0 -8 -11 -35 -24 -60 -19 -35 -21 -46 -10 -46 8 0
14 7 14 15 0 17 34 37 45 27 5 -4 5 -2 1 5 -3 6 -1 15 5 18 6 4 14 17 19 29 8
20 9 20 9 1 1 -17 6 -14 34 17 33 37 47 40 47 11 0 -17 24 -43 39 -43 6 0 11
-5 11 -11 0 -5 -5 -7 -10 -4 -11 7 10 -46 21 -55 15 -11 48 -81 54 -112 10
-55 12 -142 4 -165 -5 -14 -4 -23 4 -27 7 -2 4 -5 -6 -5 -11 -1 -15 -6 -11
-13 5 -8 0 -9 -14 -6 -12 4 -20 3 -18 -1 5 -8 -19 -42 -31 -42 -4 0 -7 -6 -7
-14 3 -30 -171 -30 -212 -1 -19 15 -28 46 -13 46 6 0 7 5 3 12 -4 6 -3 8 4 4
6 -3 9 -18 6 -31 -2 -14 0 -25 6 -25 10 0 14 14 10 40 -2 18 -35 50 -50 50 -6
0 -9 4 -5 10 3 5 -3 35 -14 67 -14 41 -16 61 -9 70 6 7 7 13 2 13 -5 0 -3 4 4
9 12 7 19 25 21 55 1 4 7 6 15 3 11 -4 11 -1 3 17 l-11 23 -45 -35 c-38 -28
-47 -32 -49 -18 -2 9 -7 14 -10 12 -4 -2 -14 3 -22 12 -13 14 -12 15 2 9 9 -3
22 1 29 10 11 13 10 17 -6 29 -23 17 -35 18 -35 3 0 -6 -7 -9 -15 -5 -9 3 -19
-3 -25 -14 -13 -25 1 -26 36 -4 13 9 27 14 30 11 3 -3 -11 -13 -30 -22 -34
-16 -35 -19 -19 -31 10 -7 25 -14 33 -14 11 -1 11 -3 2 -7 -7 -3 -20 1 -28 8
-13 10 -17 10 -24 -1 -6 -10 -9 -8 -13 6 -4 16 -5 16 -6 -3 0 -13 5 -23 12
-23 6 0 4 -5 -5 -11 -10 -5 -18 -15 -18 -20 0 -6 5 -7 11 -3 8 4 8 1 1 -12
-11 -23 -8 -78 8 -119 6 -16 15 -61 20 -99 19 -143 24 -154 128 -267 34 -37
58 -69 54 -73 -3 -4 2 -4 12 0 12 5 17 4 13 -3 -3 -5 12 -31 33 -57 22 -27 40
-50 40 -53 0 -3 -32 24 -70 61 -39 36 -74 66 -80 66 -5 0 -12 10 -16 23 -7 23
-100 117 -115 117 -5 0 -6 -7 -2 -16 5 -15 3 -15 -20 1 -15 9 -27 22 -27 27 0
5 -8 22 -18 36 -24 36 -67 134 -86 200 -14 50 -14 52 3 42 10 -5 22 -25 25
-44 4 -20 11 -38 16 -41 6 -4 7 1 3 11 -4 11 -2 15 4 11 8 -5 8 5 2 33 -15 64
-40 120 -55 120 -8 0 -14 3 -15 8 -9 104 3 163 57 277 57 122 104 191 116 174
8 -11 9 -11 4 3 -3 10 0 23 7 30 7 8 13 19 15 27 1 7 46 76 100 153 53 77 115
168 137 203 22 35 44 67 48 71 12 12 -4 -26 -25 -61 -10 -16 -18 -34 -18 -40
0 -5 14 13 30 42 16 29 27 59 24 67 -4 10 -1 16 7 16 7 0 9 3 6 7 -4 3 -2 12
4 20 6 7 8 13 5 13 -4 0 -2 10 5 21 8 17 8 20 -2 17 -11 -4 -54 -70 -76 -118
-9 -21 -102 -150 -129 -180 -12 -14 -42 -55 -66 -91 -48 -73 -152 -192 -141
-162 3 10 11 24 17 32 9 12 8 12 -11 0 -13 -8 -23 -21 -23 -31 0 -9 -4 -19 -9
-23 -6 -3 -8 -14 -6 -24 3 -19 -19 -36 -35 -26 -9 5 -34 -22 -43 -47 -3 -9 -1
-19 6 -22 7 -2 2 -5 -10 -5 -17 -1 -23 5 -23 19 0 11 7 23 15 26 8 4 15 12 15
20 0 8 9 23 19 33 11 11 45 56 76 100 56 80 70 96 59 66 -4 -8 -1 -15 5 -15 6
0 11 6 11 13 0 6 15 37 33 67 18 30 38 67 44 82 10 23 10 26 -3 21 -8 -3 -13
-8 -10 -10 3 -3 -1 -12 -9 -20 -8 -8 -15 -22 -15 -31 -1 -9 -9 -27 -19 -39
-20 -24 -38 -32 -25 -11 4 7 3 8 -5 4 -9 -6 -9 -11 0 -22 12 -15 9 -17 -15 -8
-19 7 -12 25 30 69 19 20 34 47 34 59 0 13 9 33 20 46 20 24 24 33 21 62 -1 9
4 20 10 24 9 5 10 2 6 -10 -4 -10 -3 -15 4 -11 5 4 7 15 4 24 -3 11 3 28 15
42 l21 24 -12 -25 c-6 -14 21 10 61 53 40 43 78 76 84 74 7 -3 20 1 31 9 10 8
26 14 34 14 9 0 59 -44 112 -98z m60 11 c13 -16 12 -17 -3 -4 -10 7 -18 15
-18 17 0 8 8 3 21 -13z m3197 3 c-40 -12 -88 -52 -88 -73 0 -7 -4 -13 -9 -13
-5 0 -12 -8 -14 -17 -4 -15 -5 -15 -6 -2 -3 44 83 121 134 118 12 -1 5 -6 -17
-13z m-4555 -26 c-3 -12 -8 -19 -11 -16 -5 6 5 36 12 36 2 0 2 -9 -1 -20z
m987 16 c0 -2 -8 -10 -17 -17 -16 -13 -17 -12 -4 4 13 16 21 21 21 13z m1034
-68 c35 -49 7 -84 -41 -53 -62 41 -168 5 -209 -70 -17 -32 -34 -46 -34 -27 0
17 41 72 74 98 31 25 148 72 183 73 6 1 19 -9 27 -21z m-1127 -15 c-16 -16
-18 -16 -34 1 -17 17 -17 18 4 12 12 -4 24 -2 28 4 4 6 10 9 13 5 3 -3 -2 -13
-11 -22z m27 -62 c-6 -8 -24 12 -24 28 0 31 15 34 21 4 3 -15 4 -30 3 -32z
m-279 8 c11 -17 2 -18 -30 -4 l-30 13 27 1 c15 1 30 -4 33 -10z m915 -39 c-6
-37 -8 -40 -9 -13 -1 29 8 68 14 61 1 -2 -1 -23 -5 -48z m330 40 c-14 -4 -32
-8 -40 -9 -13 -1 -13 0 0 9 8 5 26 9 40 9 l25 -1 -25 -8z m-1272 -42 c22 -15
10 -33 -23 -33 -11 0 -27 -8 -35 -18 -14 -17 -15 -14 -16 31 l-1 50 28 -8 c16
-5 37 -14 47 -22z m712 11 c0 -6 -4 -7 -10 -4 -5 3 -10 11 -10 16 0 6 5 7 10
4 6 -3 10 -11 10 -16z m539 -10 c-22 -14 -33 -10 -19 6 7 8 17 12 22 9 6 -4 5
-10 -3 -15z m-1054 -39 c-4 -17 -9 -29 -12 -26 -3 2 -2 19 2 36 4 17 9 29 12
26 3 -2 2 -19 -2 -36z m767 -55 c9 -20 9 -20 -6 -1 -9 11 -16 27 -15 35 0 14
1 14 6 1 3 -8 10 -24 15 -35z m-1087 15 c10 -11 16 -20 13 -20 -3 0 -13 9 -23
20 -10 11 -16 20 -13 20 3 0 13 -9 23 -20z m1472 -34 c-27 -25 -67 -40 -67
-25 0 5 6 9 13 9 7 0 26 12 42 28 17 15 32 23 33 19 2 -4 -7 -18 -21 -31z
m-1176 -11 c-8 -30 -8 -35 4 -25 11 9 12 7 8 -9 -3 -11 -10 -19 -16 -18 -6 1
-19 -13 -29 -32 -17 -35 -38 -61 -38 -48 0 4 11 29 24 55 13 26 29 64 36 85
15 48 25 42 11 -8z m975 20 c0 -26 -19 -34 -32 -13 -5 8 19 38 31 38 1 0 1
-11 1 -25z m-1077 -64 c-16 -54 -27 -52 -27 4 0 25 4 43 9 39 5 -3 9 0 9 7 0
9 3 10 11 2 7 -7 7 -22 -2 -52z m-168 13 c-5 -16 -10 -21 -10 -12 -1 18 10 51
15 45 2 -1 -1 -16 -5 -33z m1264 5 c11 -17 -1 -21 -15 -4 -8 9 -8 15 -2 15 6
0 14 -5 17 -11z m3335 -29 c0 -13 -7 -20 -20 -20 -11 0 -20 7 -20 15 0 9 6 12
15 9 8 -4 15 -1 15 5 0 6 2 11 5 11 3 0 5 -9 5 -20z m-3531 -33 c12 -24 21
-47 21 -51 0 -9 51 -78 65 -88 6 -5 5 -8 -3 -8 -9 0 -8 -7 4 -25 22 -34 27
-75 8 -75 -13 0 -18 11 -11 26 1 3 -6 10 -15 15 -9 5 -15 18 -13 28 2 10 -5
28 -16 40 -21 22 -25 36 -7 25 7 -4 8 -3 4 5 -4 6 -11 9 -16 6 -5 -3 -15 4
-23 15 -7 11 -16 17 -19 14 -4 -3 -9 4 -13 16 -9 29 -1 35 19 14 22 -21 34
-10 14 13 -15 17 -33 73 -24 73 2 0 14 -19 25 -43z m-1436 -27 c23 0 37 -4 30
-8 -7 -4 -29 -7 -51 -7 -35 0 -38 -2 -37 -25 1 -14 4 -32 6 -40 5 -20 -14 -15
-70 18 l-45 26 50 22 c27 13 55 21 62 18 8 -2 32 -4 55 -4z m462 -77 c-18 -62
-82 -200 -97 -209 -5 -3 -2 9 6 28 60 137 84 198 91 228 4 19 10 29 12 23 3
-7 -3 -39 -12 -70z m-345 52 c0 -8 -4 -15 -10 -15 -5 0 -10 7 -10 15 0 8 5 15
10 15 6 0 10 -7 10 -15z m447 -19 c0 -8 -6 -12 -14 -9 -7 3 -10 9 -7 14 8 14
21 11 21 -5z m-7 -37 c0 -5 -4 -9 -10 -9 -5 0 -10 7 -10 16 0 8 5 12 10 9 6
-3 10 -10 10 -16z m-780 1 c-8 -5 -19 -10 -25 -10 -5 0 -3 5 5 10 8 5 20 10
25 10 6 0 3 -5 -5 -10z m1660 -40 c6 -11 8 -20 6 -20 -3 0 -10 9 -16 20 -6 11
-8 20 -6 20 3 0 10 -9 16 -20z m3908 -452 l-3 -413 -404 -3 c-264 -1 -408 1
-415 8 -11 11 -23 777 -13 805 6 13 56 15 422 15 l415 0 -2 -412z m-4774 393
c3 -5 -1 -14 -8 -20 -12 -10 -14 -9 -11 6 2 10 4 19 4 21 2 5 10 2 15 -7z
m950 -75 c6 -24 -5 -11 -34 39 l-22 40 25 -30 c14 -16 28 -39 31 -49z m6711
54 c3 -5 1 -10 -4 -10 -6 0 -11 5 -11 10 0 6 2 10 4 10 3 0 8 -4 11 -10z m208
-23 c18 4 19 3 7 -6 -8 -6 -28 -11 -44 -11 -29 0 -29 0 -10 18 13 13 20 15 22
7 2 -8 12 -11 25 -8z m278 2 c9 -4 15 -18 13 -31 -1 -13 -3 -28 -3 -35 -1 -16
-66 -83 -80 -83 -9 0 -16 -34 -13 -62 2 -11 -27 -18 -33 -8 -4 6 -1 10 4 10 6
0 11 4 11 8 0 11 -35 52 -44 52 -4 0 -14 7 -23 15 -8 8 -19 13 -24 10 -5 -4
-19 1 -31 9 -12 9 -17 16 -11 16 7 0 15 -4 18 -10 3 -5 11 -10 16 -10 6 0 7 4
4 10 -4 6 5 8 22 6 15 -2 22 -1 15 1 -7 3 -10 12 -7 23 3 10 -2 25 -12 36 -12
11 -13 16 -4 13 8 -3 37 7 65 22 50 26 79 28 117 8z m-7712 -87 c1 -7 -3 -10
-9 -7 -5 3 -10 21 -9 38 1 31 1 31 9 7 4 -14 8 -31 9 -38z m-499 8 c0 -5 -9
-9 -20 -7 -31 5 -36 17 -7 17 15 0 27 -4 27 -10z m757 -95 c0 -15 -34 -31 -44
-21 -4 3 1 6 10 6 10 0 17 7 17 15 0 8 4 15 8 15 5 0 9 -7 9 -15z m143 -5 c0
-5 -2 -10 -4 -10 -3 0 -8 5 -11 10 -3 6 -1 10 4 10 6 0 11 -4 11 -10z m7285
-100 c3 -5 1 -10 -4 -10 -6 0 -11 5 -11 10 0 6 2 10 4 10 3 0 8 -4 11 -10z
m-8259 -43 c-4 -27 -29 -29 -34 -3 -4 19 16 39 30 30 4 -3 6 -15 4 -27z m8204
2 c0 -5 -11 -8 -24 -7 -29 3 -27 13 3 15 12 1 21 -2 21 -8z m-8413 -31 c-3 -7
-5 -2 -5 12 0 14 2 19 5 13 2 -7 2 -19 0 -25z m583 -8 c0 -5 -5 -10 -11 -10
-5 0 -7 5 -4 10 3 6 8 10 11 10 2 0 4 -4 4 -10z m18 -65 c0 -14 -4 -28 -9 -31
-5 -3 -6 3 -2 12 5 13 3 15 -8 9 -8 -4 -11 -5 -7 0 4 4 3 14 -3 21 -6 7 -8 18
-4 24 11 17 33 -6 33 -35z m-421 -47 c-3 -7 -5 -2 -5 12 0 14 2 19 5 13 2 -7
2 -19 0 -25z m3431 -173 c2 -37 0 -75 -4 -84 -4 -9 -6 -24 -5 -33 4 -31 -16
-19 -23 13 -8 42 -8 164 1 173 18 17 28 -6 31 -69z m2669 -15 c-7 -26 9 -35
22 -13 6 10 11 13 11 8 0 -15 -21 -35 -37 -35 -9 0 -12 9 -9 28 5 34 5 32 12
32 4 0 4 -9 1 -20z m-5595 -35 c3 -14 -1 -33 -8 -42 -12 -16 -13 -12 -14 30 0
49 14 57 22 12z m2297 -61 c17 -14 31 -30 31 -36 0 -5 -14 2 -31 16 -22 18
-42 26 -70 26 -24 0 -38 4 -34 10 12 20 73 11 104 -16z m-111 -28 c-34 -17
-35 -60 -3 -92 23 -23 32 -26 73 -21 47 5 75 28 65 53 -3 8 0 14 6 14 15 0 14
-32 -2 -54 -14 -20 -89 -33 -130 -22 -27 6 -47 43 -47 86 0 34 24 62 46 53 12
-4 10 -8 -8 -17z m86 -2 c9 -3 14 -10 11 -15 -3 -4 -12 -6 -20 -2 -11 3 -15
-2 -15 -17 0 -16 4 -20 16 -16 10 4 14 1 12 -6 -3 -7 -15 -14 -29 -15 -13 -1
-19 0 -14 2 6 3 9 21 7 40 -4 35 2 41 32 29z m-1428 -17 c-11 -7 -28 -20 -38
-29 -20 -20 -33 -24 -22 -7 6 11 65 49 74 48 3 0 -4 -6 -14 -12z m4310 -8 c14
-16 15 -22 5 -28 -9 -6 -7 -10 8 -14 19 -5 21 -12 21 -99 -1 -91 -1 -92 -16
-58 -18 43 -20 44 -36 34 -31 -19 -96 -25 -120 -11 -14 10 -18 24 -18 75 0 57
3 67 29 93 37 36 97 41 127 8z m-5320 -6 c16 -21 18 -37 4 -28 -13 8 -33 45
-24 45 4 0 13 -8 20 -17z m1001 -35 c-3 -8 -6 -5 -6 6 -1 11 2 17 5 13 3 -3 4
-12 1 -19z m1383 12 c0 -5 -5 -10 -11 -10 -5 0 -7 5 -4 10 3 6 8 10 11 10 2 0
4 -4 4 -10z m-1425 -30 c-3 -5 -11 -10 -16 -10 -6 0 -7 5 -4 10 3 6 11 10 16
10 6 0 7 -4 4 -10z m-904 -27 c13 -16 12 -17 -3 -4 -10 7 -18 15 -18 17 0 8 8
3 21 -13z m845 -20 c-10 -10 -19 5 -10 18 6 11 8 11 12 0 2 -7 1 -15 -2 -18z
m-125 -11 c-7 -2 -18 1 -23 6 -8 8 -4 9 13 5 13 -4 18 -8 10 -11z m2327 1 c14
-29 0 -138 -18 -138 -25 0 -42 51 -35 106 5 39 11 49 26 49 10 0 22 -8 27 -17z
m5867 -27 c52 -25 137 -94 100 -81 -11 4 -57 16 -103 26 -126 29 -168 50 -145
72 15 16 100 6 148 -17z m-8825 10 c0 -3 -4 -8 -10 -11 -5 -3 -10 -1 -10 4 0
6 5 11 10 11 6 0 10 -2 10 -4z m985 -15 c3 -9 -1 -21 -9 -27 -9 -6 -16 -17
-16 -25 -1 -8 -8 -1 -16 14 -9 16 -13 35 -10 42 7 18 44 15 51 -4z m-602 -23
c-3 -16 -9 -28 -14 -28 -5 0 -6 8 -3 18 4 13 1 11 -14 -6 -12 -12 -23 -19 -26
-14 -7 12 4 52 15 52 5 0 6 -7 2 -16 -5 -14 -3 -14 16 -3 11 8 21 18 21 23 0
5 2 7 4 5 2 -2 2 -16 -1 -31z m-93 -22 c0 -2 -8 -10 -17 -17 -16 -13 -17 -12
-4 4 13 16 21 21 21 13z m-39 -53 c-5 -10 -17 -27 -26 -38 -16 -19 -16 -19 -4
5 13 27 29 50 36 50 2 0 -1 -8 -6 -17z m740 -3 l24 -21 -32 16 c-32 15 -42 25
-24 25 5 0 19 -9 32 -20z m4207 -14 c9 -9 3 -99 -7 -109 -6 -6 -46 -11 -91
-11 -75 -1 -81 0 -86 21 -17 66 45 118 130 109 27 -3 51 -8 54 -10z m-5510
-76 c-1 -21 -5 -37 -9 -34 -4 2 -15 -8 -24 -24 -17 -28 -53 -57 -61 -49 -2 2
5 22 16 45 11 22 20 45 20 50 0 17 41 62 51 56 5 -3 9 -23 7 -44z m-128 1 c0
-11 -25 -32 -31 -26 -3 2 -10 -5 -17 -16 -12 -19 -11 -19 10 -8 23 12 23 12 4
-10 -11 -11 -25 -21 -32 -21 -7 0 -16 -5 -20 -12 -4 -6 -3 -8 4 -4 7 4 10 -4
10 -24 -1 -36 -11 -39 -26 -7 -8 17 -11 18 -11 5 -1 -9 -5 -19 -10 -22 -12 -8
-1 33 17 64 16 27 82 89 95 90 4 0 7 -4 7 -9z m3392 -43 c2 -7 4 -85 3 -172
-2 -135 -4 -162 -18 -170 -9 -6 -20 -7 -24 -2 -9 9 -18 319 -9 341 7 18 42 20
48 3z m-2126 -79 c3 -5 -9 -9 -26 -9 -22 0 -33 -6 -40 -22 -8 -22 -9 -22 -9 4
-1 15 6 31 15 36 18 10 51 5 60 -9z m4284 -164 l0 -115 -30 0 -30 0 0 133 c0
74 3 136 6 140 3 3 17 -5 30 -18 23 -23 24 -31 24 -140z m-3723 58 c-3 -10 -5
-2 -5 17 0 19 2 27 5 18 2 -10 2 -26 0 -35z m2715 -17 c76 -19 145 -57 207
-118 66 -64 99 -116 111 -176 5 -26 12 -58 15 -72 3 -15 -1 -10 -12 13 l-18
38 3 -78 c3 -65 0 -89 -22 -147 -43 -114 -101 -178 -206 -229 -55 -27 -76 -31
-140 -31 -85 0 -142 21 -210 75 -56 46 -132 139 -126 156 3 8 2 12 -3 8 -5 -3
-15 11 -21 30 -12 36 -37 50 -76 43 -14 -2 -20 4 -22 26 -3 26 11 127 23 173
3 10 -1 5 -9 -12 -21 -42 -19 -18 3 54 19 60 55 118 96 153 35 31 84 60 108
63 12 2 47 13 77 24 64 24 141 26 222 7z m4688 -69 c0 -2 -16 -18 -35 -37 -19
-19 -35 -31 -35 -27 0 3 15 20 33 36 31 30 37 34 37 28z m108 -247 c23 -10 42
-24 42 -30 0 -5 10 -10 23 -11 35 -1 8 -8 -71 -17 -50 -6 -69 -5 -62 2 7 7 4
16 -12 28 -23 18 -23 19 -4 33 25 19 32 19 84 -5z m-8593 -100 c3 -5 -6 -12
-21 -16 -15 -4 -79 -46 -143 -94 -64 -48 -147 -104 -185 -124 -38 -21 -92 -54
-120 -74 -28 -19 -56 -35 -63 -35 -7 0 -11 -3 -8 -5 8 -8 -37 -52 -47 -46 -5
3 -7 0 -6 -7 2 -7 -6 -15 -17 -17 -21 -5 -130 -76 -140 -92 -4 -6 1 -7 12 -4
15 5 15 4 -2 -8 -11 -8 -33 -23 -50 -33 l-30 -17 23 20 c12 11 22 23 22 26 0
6 -43 -20 -140 -83 -14 -9 -21 -11 -17 -3 13 21 -1 14 -39 -20 -36 -32 -37
-32 -30 -8 7 24 6 24 -17 -5 l-25 -30 -8 70 c-10 88 -7 116 14 137 28 27 168
93 333 156 185 71 192 74 293 147 144 104 291 174 363 175 23 0 45 -4 48 -10z
m6600 -220 c3 -5 2 -10 -4 -10 -5 0 -13 5 -16 10 -3 6 -2 10 4 10 5 0 13 -4
16 -10z m-7630 -85 c-5 -41 -12 -57 -31 -69 -28 -19 -31 -10 -7 23 9 14 11 21
5 17 -9 -6 -9 -1 0 21 6 15 15 32 20 38 4 5 8 18 9 30 0 11 3 14 6 7 3 -7 2
-37 -2 -67z m9315 50 c7 -8 20 -15 29 -15 26 0 52 -23 54 -48 0 -12 5 -22 10
-22 4 0 5 -4 2 -10 -4 -6 7 -10 25 -10 39 0 86 -48 101 -103 6 -23 14 -35 21
-31 7 5 8 2 2 -7 -5 -8 -9 -25 -10 -39 -2 -38 -48 -125 -64 -123 -8 1 -33 7
-55 13 -22 6 -49 12 -60 13 -17 2 -20 9 -20 47 0 33 -4 47 -17 52 -12 5 -18
19 -19 40 -2 101 -8 139 -29 173 l-22 35 24 20 c12 11 17 19 11 20 -7 0 -13
-5 -13 -12 0 -6 -3 -9 -6 -5 -7 7 4 27 15 27 5 0 14 -7 21 -15z m-50 -80 c5 3
12 0 16 -6 4 -8 3 -9 -4 -5 -18 11 -15 -21 4 -49 9 -14 12 -25 6 -25 -14 0
-52 54 -52 72 0 19 14 32 18 19 2 -6 8 -9 12 -6z m-9283 -67 c-3 -8 -6 -5 -6
6 -1 11 2 17 5 13 3 -3 4 -12 1 -19z m9281 -22 c13 -19 24 -44 24 -57 1 -13 7
-31 13 -39 14 -17 27 -50 20 -50 -8 0 -105 71 -106 78 -6 28 -4 80 2 76 5 -3
6 2 3 10 -11 30 21 16 44 -18z m476 -10 c4 -32 -10 -44 -17 -15 -6 21 2 54 10
45 3 -2 6 -16 7 -30z m-9229 -14 c-6 -5 -39 -30 -75 -57 -36 -26 -85 -67 -109
-89 -55 -52 -42 -27 25 48 29 32 73 69 100 82 47 24 77 32 59 16z m-110 -12
c-3 -5 -12 -10 -18 -10 -7 0 -6 4 3 10 19 12 23 12 15 0z m8595 -44 c31 -13
31 -13 9 -19 -13 -4 -26 -3 -29 2 -3 4 -18 13 -35 19 l-30 10 26 1 c15 1 41
-5 59 -13z m100 -52 c0 -2 -13 2 -30 11 -16 9 -30 18 -30 21 0 2 14 -2 30 -11
17 -9 30 -18 30 -21z m185 -14 c3 -5 3 -10 0 -10 -13 0 -65 34 -65 42 0 10 56
-18 65 -32z m-1275 10 c0 -5 -4 -10 -10 -10 -5 0 -10 5 -10 10 0 6 5 10 10 10
6 0 10 -4 10 -10z m1232 -26 c21 -15 36 -29 33 -32 -3 -3 -15 4 -28 16 -13 12
-28 22 -35 22 -6 0 -14 5 -17 10 -11 17 8 11 47 -16z m-1107 -74 c-3 -5 -14
-10 -23 -10 -15 0 -15 2 -2 10 20 13 33 13 25 0z m-345 -60 c0 -5 -2 -10 -4
-10 -3 0 -8 5 -11 10 -3 6 -1 10 4 10 6 0 11 -4 11 -10z m60 -8 c0 -12 -3 -12
-15 -2 -8 7 -15 13 -15 15 0 1 7 2 15 2 8 0 15 -7 15 -15z m25 8 c3 -5 1 -10
-4 -10 -6 0 -11 5 -11 10 0 6 2 10 4 10 3 0 8 -4 11 -10z m-181 -15 c-4 -8 -8
-15 -10 -15 -2 0 -4 7 -4 15 0 8 4 15 10 15 5 0 7 -7 4 -15z m33 0 c0 -8 -4
-12 -9 -9 -5 3 -6 10 -3 15 9 13 12 11 12 -6z m246 -52 c-7 -3 -9 -11 -6 -19
7 -18 -4 -18 -22 0 -17 17 0 37 23 28 10 -3 11 -7 5 -9z m1396 -23 c9 0 22
-31 26 -62 1 -10 -3 -18 -10 -18 -8 0 -11 8 -8 20 4 14 -5 30 -26 52 -17 17
-31 35 -31 40 0 4 9 -1 20 -12 11 -11 24 -20 29 -20z m-1792 -17 c2 -6 -2 -13
-10 -16 -8 -3 -13 3 -14 15 -2 20 18 21 24 1z m153 13 c0 -2 -7 -7 -16 -10 -8
-3 -12 -2 -9 4 6 10 25 14 25 6z m1936 -15 c0 -11 -4 -17 -8 -15 -4 3 -8 12
-8 20 0 8 4 14 8 14 4 0 8 -9 8 -19z m-2231 -1 c-3 -5 -16 -10 -28 -9 -21 0
-21 1 -2 9 28 12 37 12 30 0z m100 0 c3 -5 -1 -10 -9 -10 -9 0 -16 5 -16 10 0
6 4 10 9 10 6 0 13 -4 16 -10z m82 4 c-3 -3 -12 -4 -19 -1 -8 3 -5 6 6 6 11 1
17 -2 13 -5z m83 -23 c0 -5 -7 -12 -16 -15 -14 -5 -15 -4 -4 9 14 17 20 19 20
6z m316 -63 c5 -8 2 -9 -10 -5 -16 6 -17 3 -12 -20 5 -26 5 -27 -6 -5 -6 12
-15 22 -20 22 -5 0 -6 5 -3 10 8 14 42 13 51 -2z m-186 -22 c0 -2 -8 -10 -17
-17 -16 -13 -17 -12 -4 4 13 16 21 21 21 13z m1615 -7 c12 -19 -5 -23 -22 -6
-16 16 -16 17 -1 17 9 0 20 -5 23 -11z m-2842 -6 c-7 -2 -19 -2 -25 0 -7 3 -2
5 12 5 14 0 19 -2 13 -5z m1163 -25 c4 -7 4 -10 -1 -6 -4 4 -14 3 -22 -3 -8
-8 -13 -8 -13 -1 0 6 6 13 13 15 6 3 13 6 14 6 1 1 5 -5 9 -11z m289 -7 c-3
-6 -11 -11 -16 -11 -5 0 -4 6 3 14 14 16 24 13 13 -3z m-7255 -21 c-8 -5 -19
-10 -25 -10 -5 0 -3 5 5 10 8 5 20 10 25 10 6 0 3 -5 -5 -10z m7007 4 c-3 -3
-12 -4 -19 -1 -8 3 -5 6 6 6 11 1 17 -2 13 -5z m123 -25 c0 -5 -7 -9 -15 -9
-9 0 -12 -6 -8 -17 4 -11 3 -14 -5 -9 -15 9 -15 29 0 44 12 12 28 7 28 -9z
m50 1 c-6 -11 -20 -25 -32 -31 -18 -9 -16 -5 7 19 35 37 39 39 25 12z m-477
-47 c-7 -2 -19 -2 -25 0 -7 3 -2 5 12 5 14 0 19 -2 13 -5z m481 1 c9 -3 13
-10 10 -15 -3 -5 0 -9 5 -9 6 0 11 -4 11 -10 0 -18 -17 -10 -34 15 -18 27 -17
28 8 19z m-94 -49 c0 -8 -4 -15 -10 -15 -5 0 -7 7 -4 15 4 8 8 15 10 15 2 0 4
-7 4 -15z m-325 -17 c5 4 5 1 1 -6 -5 -9 -12 -9 -27 -2 -10 6 -19 13 -19 16 0
2 8 0 19 -5 10 -6 22 -7 26 -3z m56 -11 c-10 -9 -11 -8 -5 6 3 10 9 15 12 12
3 -3 0 -11 -7 -18z m149 -7 c8 -5 12 -11 9 -14 -3 -3 -14 1 -25 9 -21 16 -8
20 16 5z m134 -5 c-4 -8 -10 -12 -15 -9 -11 6 -2 24 11 24 5 0 7 -7 4 -15z
m1718 -4 c24 -10 70 -36 103 -56 46 -29 53 -36 30 -31 -42 10 -145 59 -175 84
-31 27 -15 28 42 3z m-2022 3 c0 -8 -19 -13 -24 -6 -3 5 1 9 9 9 8 0 15 -2 15
-3z m75 -102 c-3 -3 -11 0 -18 7 -9 10 -8 11 6 5 10 -3 15 -9 12 -12z m1280
-52 c13 -5 14 -9 5 -9 -8 0 -24 4 -35 9 -13 5 -14 9 -5 9 8 0 24 -4 35 -9z
m-1177 -111 c45 -7 82 -16 82 -21 0 -4 -6 -8 -13 -8 -7 0 -24 -13 -39 -30 -20
-23 -34 -30 -60 -29 -52 1 -69 12 -84 55 -18 53 -18 57 9 51 12 -3 59 -11 105
-18z m-14 -107 l80 -18 -32 -13 c-18 -8 -31 -18 -29 -24 4 -12 -42 -63 -54
-59 -5 1 -9 -2 -9 -8 0 -5 -6 -10 -14 -10 -14 0 -17 12 -29 118 -2 17 -1 32 2
32 3 0 42 -9 85 -18z m-2065 -561 c12 -38 27 -72 34 -74 7 -4 8 -6 1 -6 -18
-1 -30 19 -48 81 -17 59 -18 68 -12 68 2 0 14 -31 25 -69z m-2029 35 c0 -3 -4
-8 -10 -11 -5 -3 -10 -1 -10 4 0 6 5 11 10 11 6 0 10 -2 10 -4z m85 -6 c-3 -5
-12 -10 -18 -10 -7 0 -6 4 3 10 19 12 23 12 15 0z m2875 -2 c0 -4 -4 -8 -9 -8
-6 0 -12 4 -15 8 -3 5 1 9 9 9 8 0 15 -4 15 -9z m610 -30 c0 -5 -7 -3 -15 6
-8 8 -15 18 -15 22 0 3 7 1 15 -6 8 -7 15 -17 15 -22z m-835 12 l20 -9 -20 0
c-11 0 -27 4 -35 9 -13 9 -13 10 0 9 8 0 24 -4 35 -9z m-265 -20 c-8 -5 -18
-6 -24 -3 -5 4 -1 10 10 13 24 9 34 2 14 -10z m83 13 c-7 -2 -19 -2 -25 0 -7
3 -2 5 12 5 14 0 19 -2 13 -5z m1132 -13 c10 -11 16 -20 13 -20 -3 0 -13 9
-23 20 -10 11 -16 20 -13 20 3 0 13 -9 23 -20z m-1392 -5 c-3 -9 -8 -14 -10
-11 -3 3 -2 9 2 15 9 16 15 13 8 -4z m994 -1 c-3 -3 -12 -4 -19 -1 -8 3 -5 6
6 6 11 1 17 -2 13 -5z m-1307 -12 c0 -5 -7 -9 -15 -9 -8 0 -12 4 -9 9 3 4 9 8
15 8 5 0 9 -4 9 -8z m241 -9 c13 -17 13 -17 -6 -3 -11 8 -22 16 -24 17 -2 2 0
3 6 3 6 0 17 -8 24 -17z m39 7 c0 -5 -2 -10 -4 -10 -3 0 -8 5 -11 10 -3 6 -1
10 4 10 6 0 11 -4 11 -10z m-1980 -4 c0 -3 -4 -8 -10 -11 -5 -3 -10 -1 -10 4
0 6 5 11 10 11 6 0 10 -2 10 -4z m1740 -16 c0 -5 -15 -9 -32 -9 l-33 1 30 8
c17 4 31 8 33 9 1 0 2 -3 2 -9z m-83 -6 c-3 -3 -12 -4 -19 -1 -8 3 -5 6 6 6
11 1 17 -2 13 -5z m2012 -30 c10 -9 -45 -3 -59 6 -11 7 -5 8 20 4 19 -4 37 -8
39 -10z m78 -21 c-9 -8 -48 8 -42 18 4 5 14 5 26 -2 12 -6 18 -13 16 -16z
m206 10 c-7 -2 -19 -2 -25 0 -7 3 -2 5 12 5 14 0 19 -2 13 -5z m-10 -20 c-7
-2 -19 -2 -25 0 -7 3 -2 5 12 5 14 0 19 -2 13 -5z m844 -109 c-3 -3 -12 -4
-19 -1 -8 3 -5 6 6 6 11 1 17 -2 13 -5z m-6707 -130 c0 -2 -9 -4 -21 -4 -11 0
-18 4 -14 10 5 8 35 3 35 -6z m25 6 c3 -5 1 -10 -4 -10 -6 0 -11 5 -11 10 0 6
2 10 4 10 3 0 8 -4 11 -10z m-455 -74 c0 -3 -4 -8 -10 -11 -5 -3 -10 -1 -10 4
0 6 5 11 10 11 6 0 10 -2 10 -4z m-206 -67 c-6 -11 -31 -12 -37 -1 -3 4 6 8
19 8 13 1 21 -2 18 -7z m-695 -597 c-5 -2 -9 -9 -9 -17 0 -7 -6 -18 -14 -24
-11 -9 -15 -8 -20 4 -3 9 2 20 13 27 11 7 17 18 13 27 -5 14 -4 14 10 1 9 -8
12 -16 7 -18z m-43 -7 c-21 -16 -32 -13 -21 4 3 6 14 11 23 11 15 -1 15 -2 -2
-15z m-41 -65 c-3 -5 -12 -10 -18 -10 -7 0 -6 4 3 10 19 12 23 12 15 0z m-175
-139 c0 -5 -7 -12 -16 -15 -14 -5 -15 -4 -4 9 14 17 20 19 20 6z"/>
<path d="M6535 9670 c-3 -5 -1 -10 4 -10 6 0 11 5 11 10 0 6 -2 10 -4 10 -3 0
-8 -4 -11 -10z"/>
<path d="M6995 9610 c3 -5 8 -10 11 -10 2 0 4 5 4 10 0 6 -5 10 -11 10 -5 0
-7 -4 -4 -10z"/>
<path d="M7350 9570 c0 -6 7 -10 15 -10 8 0 15 2 15 4 0 2 -7 6 -15 10 -8 3
-15 1 -15 -4z"/>
<path d="M7938 9512 c20 -22 25 -21 16 2 -3 9 -12 16 -20 16 -11 0 -10 -4 4
-18z"/>
<path d="M8010 8556 c0 -3 25 -18 55 -34 58 -32 78 -30 22 2 -36 21 -77 37
-77 32z"/>
<path d="M4975 7290 c-3 -5 -1 -10 4 -10 6 0 11 5 11 10 0 6 -2 10 -4 10 -3 0
-8 -4 -11 -10z"/>
<path d="M1230 6535 c-11 -13 -10 -14 4 -9 9 3 16 10 16 15 0 13 -6 11 -20 -6z"/>
<path d="M1206 6445 c-3 -8 -2 -15 3 -15 5 0 14 7 21 15 10 12 10 15 -3 15 -8
0 -17 -7 -21 -15z"/>
<path d="M421 5674 c0 -11 3 -14 6 -6 3 7 2 16 -1 19 -3 4 -6 -2 -5 -13z"/>
<path d="M523 5205 c-3 -9 -3 -18 -1 -21 3 -3 8 4 11 16 6 23 -1 27 -10 5z"/>
<path d="M440 5159 c0 -5 5 -7 10 -4 6 3 10 8 10 11 0 2 -4 4 -10 4 -5 0 -10
-5 -10 -11z"/>
<path d="M421 5144 c0 -11 3 -14 6 -6 3 7 2 16 -1 19 -3 4 -6 -2 -5 -13z"/>
<path d="M446 5035 c-3 -8 -1 -15 4 -15 6 0 10 7 10 15 0 8 -2 15 -4 15 -2 0
-6 -7 -10 -15z"/>
<path d="M4846 6561 c-4 -7 -5 -15 -2 -18 9 -9 19 4 14 18 -4 11 -6 11 -12 0z"/>
<path d="M5590 6545 c-19 -22 5 -48 31 -34 10 5 19 14 19 19 0 5 -9 14 -19 19
-14 8 -22 7 -31 -4z"/>
<path d="M1692 6504 c-10 -12 -10 -14 2 -14 17 0 30 16 19 23 -5 3 -14 -1 -21
-9z"/>
<path d="M1850 6511 c0 -5 5 -13 10 -16 6 -3 10 -2 10 4 0 5 -4 13 -10 16 -5
3 -10 2 -10 -4z"/>
<path d="M2062 6504 c-7 -8 -8 -14 -3 -14 10 0 25 19 20 25 -2 1 -10 -3 -17
-11z"/>
<path d="M2140 6513 c0 -5 11 -9 25 -9 14 -1 22 2 19 7 -6 11 -44 12 -44 2z"/>
<path d="M1536 6451 c-4 -5 -2 -12 3 -15 5 -4 12 -2 15 3 4 5 2 12 -3 15 -5 4
-12 2 -15 -3z"/>
<path d="M1660 6300 c0 -5 5 -10 11 -10 5 0 7 5 4 10 -3 6 -8 10 -11 10 -2 0
-4 -4 -4 -10z"/>
<path d="M2535 4140 c-3 -5 -1 -10 4 -10 6 0 11 5 11 10 0 6 -2 10 -4 10 -3 0
-8 -4 -11 -10z"/>
<path d="M2541 4104 c0 -11 3 -14 6 -6 3 7 2 16 -1 19 -3 4 -6 -2 -5 -13z"/>
<path d="M6815 4660 c3 -5 8 -10 11 -10 2 0 4 5 4 10 0 6 -5 10 -11 10 -5 0
-7 -4 -4 -10z"/>
<path d="M8610 6080 c-6 -11 -8 -31 -4 -43 7 -19 9 -17 16 17 10 45 5 57 -12
26z"/>
<path d="M8910 6066 c0 -2 7 -7 16 -10 8 -3 12 -2 9 4 -6 10 -25 14 -25 6z"/>
<path d="M8883 5883 c9 -2 23 -2 30 0 6 3 -1 5 -18 5 -16 0 -22 -2 -12 -5z"/>
<path d="M8953 5883 c9 -2 23 -2 30 0 6 3 -1 5 -18 5 -16 0 -22 -2 -12 -5z"/>
<path d="M8935 5750 c-3 -5 1 -10 9 -10 9 0 16 5 16 10 0 6 -4 10 -9 10 -6 0
-13 -4 -16 -10z"/>
<path d="M1186 6029 c-25 -28 -46 -56 -45 -63 0 -6 8 0 17 14 9 14 32 42 51
62 18 21 31 38 28 38 -3 0 -26 -23 -51 -51z"/>
<path d="M1118 5933 c-18 -21 -31 -43 -25 -43 2 0 13 14 25 30 25 33 24 41 0
13z"/>
<path d="M1067 5853 c-4 -3 -7 -11 -7 -17 0 -6 5 -5 12 2 6 6 9 14 7 17 -3 3
-9 2 -12 -2z"/>
<path d="M1631 5694 c0 -11 3 -14 6 -6 3 7 2 16 -1 19 -3 4 -6 -2 -5 -13z"/>
<path d="M950 5605 c-7 -9 -11 -17 -9 -20 3 -2 10 5 17 15 14 24 10 26 -8 5z"/>
<path d="M940 5389 c0 -5 5 -7 10 -4 6 3 10 8 10 11 0 2 -4 4 -10 4 -5 0 -10
-5 -10 -11z"/>
<path d="M1172 5357 c-7 -8 -9 -17 -6 -20 3 -3 -1 -16 -10 -29 -22 -31 -20
-45 4 -23 11 10 18 20 15 23 -3 3 3 14 12 24 11 13 13 22 6 29 -7 7 -14 5 -21
-4z"/>
<path d="M1606 5297 c3 -10 9 -15 12 -12 3 3 0 11 -7 18 -10 9 -11 8 -5 -6z"/>
<path d="M1595 5260 c-3 -5 -2 -10 4 -10 5 0 13 5 16 10 3 6 2 10 -4 10 -5 0
-13 -4 -16 -10z"/>
<path d="M1300 4980 c0 -5 5 -10 10 -10 6 0 10 5 10 10 0 6 -4 10 -10 10 -5 0
-10 -4 -10 -10z"/>
<path d="M1375 4374 c-24 -37 -11 -41 15 -5 12 17 17 31 12 31 -5 0 -17 -12
-27 -26z"/>
<path d="M5150 5291 c0 -5 15 -12 33 -16 55 -11 99 -35 93 -51 -3 -8 -2 -13 3
-9 5 3 11 0 13 -5 2 -6 14 -12 28 -13 29 -2 60 -25 60 -45 0 -7 4 -10 10 -7 6
3 7 -1 4 -10 -5 -11 0 -18 14 -22 12 -3 23 -12 25 -22 3 -9 5 -2 6 14 2 67
-58 149 -131 179 -40 17 -158 22 -158 7z"/>
<path d="M5165 5171 c-11 -5 -29 -19 -40 -32 -11 -12 -14 -19 -7 -15 15 9 15
1 1 -26 -7 -13 -7 -23 -2 -27 15 -9 27 -64 12 -56 -8 6 -8 2 0 -14 6 -11 21
-26 32 -32 12 -6 19 -7 16 -2 -3 4 19 8 49 7 49 -1 57 2 79 28 49 58 22 140
-55 166 -38 14 -57 14 -85 3z m72 -98 c-12 -12 -20 -14 -28 -6 -7 7 -5 15 7
27 12 12 20 14 27 7 8 -8 6 -16 -6 -28z m-71 -90 c-7 -7 -26 7 -26 19 0 6 6 6
15 -2 9 -7 13 -15 11 -17z"/>
<path d="M5203 3943 c15 -2 37 -2 50 0 12 2 0 4 -28 4 -27 0 -38 -2 -22 -4z"/>
<path d="M5288 3933 c6 -2 18 -2 25 0 6 3 1 5 -13 5 -14 0 -19 -2 -12 -5z"/>
<path d="M5102 3909 c-67 -26 -159 -111 -197 -180 -22 -42 -30 -70 -33 -131
-6 -101 21 -178 89 -252 145 -159 347 -161 500 -5 73 74 102 144 103 249 0 87
-26 156 -88 227 -84 96 -257 139 -374 92z m68 -120 c0 -5 5 -7 12 -3 6 4 8 3
4 -4 -3 -5 -1 -12 5 -14 7 -2 -7 -11 -30 -20 -35 -14 -40 -14 -31 -3 7 8 9 15
6 15 -4 0 -2 9 4 20 11 21 30 27 30 9z m110 -314 c-7 -8 -17 -15 -23 -15 -6 0
-2 7 9 15 25 19 30 19 14 0z m1 -69 c-18 -21 -85 -30 -113 -15 l-23 13 30 6
c17 3 50 7 74 8 38 3 43 1 32 -12z"/>
<path d="M5340 3920 c8 -5 20 -10 25 -10 6 0 3 5 -5 10 -8 5 -19 10 -25 10 -5
0 -3 -5 5 -10z"/>
<path d="M4869 3893 c-13 -16 -12 -17 4 -4 9 7 17 15 17 17 0 8 -8 3 -21 -13z"/>
<path d="M9730 3280 c0 -5 5 -10 10 -10 6 0 10 5 10 10 0 6 -4 10 -10 10 -5 0
-10 -4 -10 -10z"/>
<path d="M9690 3151 c5 -11 15 -23 21 -27 6 -3 3 5 -6 20 -20 30 -30 35 -15 7z"/>
<path d="M4655 9950 c3 -5 8 -10 11 -10 2 0 4 5 4 10 0 6 -5 10 -11 10 -5 0
-7 -4 -4 -10z"/>
<path d="M8300 9705 c-8 -9 -8 -15 -2 -15 12 0 26 19 19 26 -2 2 -10 -2 -17
-11z"/>
<path d="M4184 9549 c-19 -22 -19 -22 4 -8 12 8 22 17 22 21 0 12 -6 9 -26
-13z"/>
<path d="M4139 9513 c-13 -16 -12 -17 4 -4 16 13 21 21 13 21 -2 0 -10 -8 -17
-17z"/>
<path d="M9270 8595 c-11 -13 -10 -14 4 -9 9 3 16 10 16 15 0 13 -6 11 -20 -6z"/>
<path d="M462 8443 c2 -10 7 -21 12 -25 6 -4 4 -14 -5 -24 -8 -10 -9 -15 -3
-11 7 4 14 -3 18 -18 5 -21 12 -25 34 -23 17 2 26 -1 24 -9 -3 -16 8 -16 31 1
12 9 29 11 56 6 26 -4 47 -2 62 6 29 16 42 18 34 4 -9 -15 12 -12 46 5 16 9
34 13 39 10 5 -3 11 -1 14 4 8 13 -133 69 -205 81 -35 5 -86 10 -112 10 -40 0
-47 -3 -45 -17z"/>
<path d="M736 8322 c-3 -5 1 -15 8 -21 11 -10 14 -9 12 3 -3 21 -13 29 -20 18z"/>
<path d="M1900 8320 c20 -13 33 -13 25 0 -3 6 -14 10 -23 10 -15 0 -15 -2 -2
-10z"/>
<path d="M1998 8313 c6 -2 18 -2 25 0 6 3 1 5 -13 5 -14 0 -19 -2 -12 -5z"/>
<path d="M1730 8231 c0 -9 60 -34 66 -28 2 2 -12 11 -31 20 -19 9 -35 13 -35
8z"/>
<path d="M1815 8190 c3 -5 8 -10 11 -10 2 0 4 5 4 10 0 6 -5 10 -11 10 -5 0
-7 -4 -4 -10z"/>
<path d="M1785 8180 c5 -9 2 -10 -14 -5 -16 5 -20 3 -15 -8 8 -21 -12 -30 -36
-17 -28 15 -69 3 -63 -19 3 -14 -1 -17 -19 -16 -13 1 -28 -2 -35 -7 -7 -6 -14
-5 -18 2 -4 6 -16 8 -26 5 -11 -4 -28 -1 -37 7 -14 11 -14 9 1 -9 16 -18 26
-20 80 -17 89 6 96 8 91 15 -2 4 9 9 25 12 40 8 89 51 71 62 -9 6 -11 4 -5 -5z
m-70 -40 c8 -13 -5 -13 -25 0 -13 8 -13 10 2 10 9 0 20 -4 23 -10z"/>
<path d="M1407 8165 c17 -8 34 -19 38 -25 3 -5 11 -10 17 -10 6 0 1 9 -12 20
-13 11 -27 20 -31 20 -4 0 -16 2 -26 5 -10 3 -4 -1 14 -10z"/>
<path d="M1550 8130 c-8 -5 -10 -10 -5 -10 6 0 17 5 25 10 8 5 11 10 5 10 -5
0 -17 -5 -25 -10z"/>
<path d="M10212 3188 c7 -15 15 -23 17 -17 2 6 -4 18 -13 27 -15 15 -15 15 -4
-10z"/>
<path d="M10232 3070 c0 -14 2 -19 5 -12 2 6 2 18 0 25 -3 6 -5 1 -5 -13z"/>
<path d="M10158 3064 c-5 -4 -8 -21 -8 -38 0 -21 3 -27 11 -19 6 6 9 23 7 38
-2 15 -6 23 -10 19z"/>
<path d="M10140 2970 c0 -5 5 -10 10 -10 6 0 10 5 10 10 0 6 -4 10 -10 10 -5
0 -10 -4 -10 -10z"/>
<path d="M10131 2928 c0 -9 -4 -25 -7 -35 -5 -17 -5 -17 6 0 6 10 9 25 7 35
-4 15 -5 15 -6 0z"/>
<path d="M10110 2860 c0 -5 6 -10 14 -10 8 0 17 -6 19 -12 4 -10 6 -10 6 -1 1
7 -8 17 -19 23 -14 7 -20 7 -20 0z"/>
<path d="M1140 2601 c0 -7 -6 -11 -14 -8 -7 3 -22 0 -32 -7 -30 -21 -68 -31
-59 -16 6 9 4 11 -4 5 -28 -17 8 -23 54 -10 52 16 73 30 62 42 -4 3 -7 1 -7
-6z"/>
<path d="M580 2306 c0 -10 51 -28 89 -31 45 -5 27 13 -19 18 -19 3 -43 8 -52
12 -10 4 -18 4 -18 1z"/>
<path d="M28 2053 c6 -2 18 -2 25 0 6 3 1 5 -13 5 -14 0 -19 -2 -12 -5z"/>
<path d="M6619 1470 c-11 -7 -10 -10 3 -15 9 -4 24 -5 33 -3 13 3 13 5 -3 15
-11 6 -24 8 -33 3z"/>
<path d="M3967 1459 c7 -7 15 -10 18 -7 3 3 -2 9 -12 12 -14 6 -15 5 -6 -5z"/>
<path d="M4055 1450 c3 -5 8 -10 11 -10 2 0 4 5 4 10 0 6 -5 10 -11 10 -5 0
-7 -4 -4 -10z"/>
<path d="M7653 1445 c0 -7 10 -10 24 -7 13 2 23 8 23 12 0 4 -10 8 -23 8 -13
0 -24 -6 -24 -13z"/>
<path d="M6875 1440 c3 -5 8 -10 11 -10 2 0 4 5 4 10 0 6 -5 10 -11 10 -5 0
-7 -4 -4 -10z"/>
<path d="M7857 1419 c12 -12 25 -20 28 -17 3 3 -7 13 -22 23 l-28 17 22 -23z"/>
<path d="M7201 1411 c-7 -5 -9 -11 -4 -14 5 -3 15 -2 22 2 7 5 9 11 4 14 -5 3
-15 2 -22 -2z"/>
<path d="M7700 1400 c-13 -8 -13 -10 2 -10 9 0 20 5 23 10 8 13 -5 13 -25 0z"/>
<path d="M5974 1284 c3 -11 8 -36 11 -56 4 -21 29 -120 57 -220 28 -101 58
-213 67 -250 9 -37 20 -70 25 -75 10 -10 2 23 -39 172 -54 193 -105 395 -105
415 0 10 -5 22 -11 26 -7 4 -9 0 -5 -12z"/>
<path d="M8855 1291 c-3 -5 -1 -12 5 -16 5 -3 10 1 10 9 0 18 -6 21 -15 7z"/>
<path d="M8888 1293 c7 -3 16 -2 19 1 4 3 -2 6 -13 5 -11 0 -14 -3 -6 -6z"/>
<path d="M8897 1264 c-14 -14 42 -33 70 -23 l28 9 -30 -4 c-17 -3 -37 2 -46
10 -9 8 -19 11 -22 8z"/>
<path d="M8910 1226 c0 -3 9 -10 20 -16 11 -6 20 -8 20 -6 0 3 -9 10 -20 16
-11 6 -20 8 -20 6z"/>
<path d="M9260 1160 c8 -5 20 -10 25 -10 6 0 3 5 -5 10 -8 5 -19 10 -25 10 -5
0 -3 -5 5 -10z"/>
<path d="M9350 1150 c0 -5 7 -10 16 -10 8 0 12 5 9 10 -3 6 -10 10 -16 10 -5
0 -9 -4 -9 -10z"/>
<path d="M4002 1015 c-17 -37 -14 -45 4 -12 9 16 14 31 11 33 -2 2 -9 -7 -15
-21z"/>
<path d="M3962 925 c-17 -37 -14 -45 4 -12 9 16 14 31 11 33 -2 2 -9 -7 -15
-21z"/>
<path d="M1808 784 c-193 -166 -200 -183 -10 -26 95 78 151 132 140 132 -4 0
-62 -48 -130 -106z"/>
<path d="M9937 876 c-4 -10 -1 -13 8 -9 8 3 12 9 9 14 -7 12 -11 11 -17 -5z"/>
<path d="M5105 813 c-47 -2 -192 -19 -260 -29 -62 -9 -217 -67 -245 -91 -37
-31 -38 -52 -3 -94 26 -31 130 -86 141 -74 3 3 0 5 -6 5 -18 0 -82 61 -82 78
0 13 2 13 14 -3 13 -18 14 -17 14 9 0 15 5 33 12 39 10 9 11 9 8 -3 -8 -24 20
-68 55 -86 l32 -16 -27 29 c-29 30 -36 53 -17 53 6 0 9 -6 6 -14 -16 -41 127
-98 328 -131 l80 -13 -115 -2 c-155 -3 -98 -17 105 -26 257 -11 480 24 583 93
69 47 79 63 66 100 -15 43 -94 89 -218 128 -138 42 -294 58 -471 48z m-332
-179 c-7 -19 -10 -18 -16 5 -3 13 -1 18 9 14 7 -2 10 -11 7 -19z m941 0 c5
-14 4 -15 -9 -4 -17 14 -19 20 -6 20 5 0 12 -7 15 -16z m-34 -44 c0 -5 -2 -10
-4 -10 -3 0 -8 5 -11 10 -3 6 -1 10 4 10 6 0 11 -4 11 -10z m-433 -126 c-3 -3
-12 -4 -19 -1 -8 3 -5 6 6 6 11 1 17 -2 13 -5z"/>
<path d="M9967 698 c-7 -4 14 -8 45 -8 34 0 58 -5 60 -12 2 -6 18 -11 36 -10
17 0 34 -4 37 -9 4 -5 -2 -9 -12 -10 -16 0 -16 -1 2 -9 11 -5 27 -9 35 -9 13
-1 13 1 0 10 -12 9 -12 10 3 5 10 -3 21 -6 24 -6 3 0 0 -6 -6 -14 -9 -11 -6
-15 14 -18 32 -7 35 -3 35 49 l0 43 -72 1 c-40 1 -99 2 -131 2 -33 1 -64 -1
-70 -5z"/>
<path d="M5846 677 c3 -10 9 -15 12 -12 3 3 0 11 -7 18 -10 9 -11 8 -5 -6z"/>
<path d="M5240 212 c0 -141 4 -212 10 -212 8 0 9 66 4 208 -4 114 -8 209 -10
211 -2 2 -4 -91 -4 -207z"/>
<path d="M1363 365 c0 -8 4 -12 9 -9 5 3 6 10 3 15 -9 13 -12 11 -12 -6z"/>
<path d="M8065 350 c10 -11 20 -20 23 -20 3 0 -3 9 -13 20 -10 11 -20 20 -23
20 -3 0 3 -9 13 -20z"/>
<path d="M9628 333 c6 -2 18 -2 25 0 6 3 1 5 -13 5 -14 0 -19 -2 -12 -5z"/>
<path d="M9708 333 c6 -2 18 -2 25 0 6 3 1 5 -13 5 -14 0 -19 -2 -12 -5z"/>
<path d="M9828 333 c7 -3 16 -2 19 1 4 3 -2 6 -13 5 -11 0 -14 -3 -6 -6z"/>
<path d="M9913 333 c9 -2 23 -2 30 0 6 3 -1 5 -18 5 -16 0 -22 -2 -12 -5z"/>
<path d="M10073 333 c31 -2 83 -2 115 0 31 2 5 3 -58 3 -63 0 -89 -1 -57 -3z"/>
<path d="M1292 294 l-37 -36 43 33 c23 18 42 34 42 36 0 9 -14 0 -48 -33z"/>
<path d="M8100 313 c0 -5 22 -31 48 -59 53 -56 46 -42 -11 24 -20 23 -37 39
-37 35z"/>
<path d="M1219 233 l-24 -28 28 24 c15 14 27 26 27 28 0 8 -8 1 -31 -24z"/>
<path d="M6970 207 c0 -14 101 -209 106 -204 3 3 -15 45 -40 93 -47 94 -66
124 -66 111z"/>
<path d="M7663 202 l-73 -3 52 -74 c28 -40 62 -86 75 -102 39 -45 11 4 -51 90
l-55 77 279 0 c173 0 280 4 280 10 0 8 -313 10 -507 2z"/>
<path d="M8210 183 c0 -5 10 -18 23 -29 l22 -19 -20 25 c-11 14 -21 27 -22 29
-2 2 -3 0 -3 -6z"/>
<path d="M3971 119 c-7 -22 -11 -43 -8 -45 2 -2 9 14 16 37 7 22 11 43 8 45
-2 2 -9 -14 -16 -37z"/>
<path d="M3946 34 c-4 -14 -5 -28 -3 -31 3 -2 8 8 11 23 4 14 5 28 3 31 -3 2
-8 -8 -11 -23z"/>
</g>
</svg>
